<?xml version="1.0" encoding="UTF-8"?><svg id="Layer_1" xmlns="http://www.w3.org/2000/svg" viewBox="0 0 1000 1000"><defs><style>.cls-1{fill:#020202;}.cls-1,.cls-2,.cls-3,.cls-4,.cls-5,.cls-6,.cls-7,.cls-8,.cls-9,.cls-10,.cls-11,.cls-12,.cls-13,.cls-14,.cls-15,.cls-16,.cls-17,.cls-18,.cls-19,.cls-20,.cls-21,.cls-22,.cls-23,.cls-24,.cls-25,.cls-26,.cls-27{stroke-width:0px;}.cls-2{fill:#fce74c;}.cls-3{fill:#fbfbfa;}.cls-4{fill:#f99e3e;}.cls-5{fill:#747e67;}.cls-6{fill:#929578;}.cls-7{fill:#af645c;}.cls-8{fill:#e4a894;}.cls-9{fill:#c39c5c;}.cls-10{fill:#969cbd;}.cls-11{fill:#c29b5a;}.cls-12{fill:#fde84c;}.cls-13{fill:#af665f;}.cls-14{fill:#edd350;}.cls-15{fill:#ae635c;}.cls-16{fill:#040402;}.cls-17{fill:#fde84d;}.cls-18{fill:#f9f9f7;}.cls-19{fill:#bec6d5;}.cls-20{fill:#fdfdfd;}.cls-21{fill:#d58142;}.cls-22{fill:#94afbc;}.cls-23{fill:#bec7d7;}.cls-24{fill:#73748a;}.cls-25{fill:#fbe74c;}.cls-26{fill:#919478;}.cls-27{fill:#e6aa97;}</style></defs><path class="cls-20" d="m0,500C0,334.65,0,169.31.17,3.96c0-1.33,2.5-3.83,3.83-3.84,330.68-.17,661.36-.17,992.04,0,1.33,0,3.83,2.5,3.84,3.84.17,330.69.17,661.38,0,992.07,0,1.33-2.5,3.84-3.84,3.84-330.68.17-661.36.17-992.04,0-1.33,0-3.83-2.5-3.84-3.84C0,830.69,0,665.35,0,500Zm646.78-232.09c13.22,1.33,26.42,2.87,39.67,3.8,2.26.16,4.7-2.32,7.06-3.58-2.17-2.4-3.97-6.29-6.59-6.95-13.52-3.44-27.24-6.06-40.89-8.97-12.41-4.88-23.46-7.6-18.89,12.65.48,2.13,2.66,5.57,3.93,5.52,5.26-.22,10.48-1.55,15.72-2.47Zm90.48,16.85c-5.7-4.25-11.4-8.51-17.1-12.76-15.25-10.35-19.76,3.81-27.1,11.73-.75.81-3.68,1.07-3.9.66-5.74-10.47-9.78-6.72-13.42,1.44-2.57,5.74-5.15,11.48-7.72,17.23-12.19-7.03-24.17-14.47-36.69-20.87-4.43-2.26-10.16-1.96-15.3-2.83,1.43,4.06,2.61,8.23,4.37,12.14.99,2.2,2.52,4.71,4.51,5.8,14.27,7.84,28.72,15.34,43.11,22.95,3.86,17.46,15.98,20.84,32.08,21.43,13.1.47,21.57-2.05,24.36-15.65,5.7-1.76,12.93-1.95,16.75-5.65,5.55-5.38,12.13-13.53,11.7-20.08-.35-5.49-10.09-10.39-15.67-15.54Zm-164.31,50.15c-3.11,5.3-6.23,10.6-9.34,15.89,10.32,5.79,20.64,11.59,30.96,17.38,2.14,3.66,5.83,7.18,6.17,10.99,1.51,17.28,5.99,29.31,26.93,19.78,1.75-.8,3.94-1.06,5.88-.91,12.93,1.01,20.63-2.48,17.92-17.79-.63-3.55,1.85-8.83,4.62-11.57,6.03-5.96,5.07-8.15-2.19-12.26-6.7-3.8-11.47-10.91-17.54-16.03-1.38-1.16-6.49-.7-6.68-.05-4.51,15.5-16.49,16.52-29.51,15.75-5.03-3.69-10.06-7.38-15.09-11.06,12.47-4.37,24.97-8.64,37.37-13.22,1.53-.56,3.05-2.59,3.46-4.22.26-1.02-1.27-3.32-2.48-3.77-19.19-7.29-35.55-1.3-50.46,11.11Zm226.01,1.73c2.18,1.14,5,1.77,6.43,3.52,7.11,8.75,11.78.97,10.62-3.41-2.25-8.54-7.47-16.6-12.69-23.99-6.57-9.31-28.19-7.62-33.83,2.57-8.01,14.46,9.99,8.89,12.48,15.45-4.44,6.61-7.91,17.86-13.49,19.03-25.46,5.33-51.62,7.25-77.29,11.73-6.42,1.12-11.97,7.17-17.92,10.96,3.77,1.81,7.79,5.56,11.27,5.11,26.92-3.49,54.13-6.14,80.43-12.48,14.39-3.47,35.61-3.79,33.99-28.48Zm-535.08,109.42c3.69-5.03,6.6-10.99,11.23-14.9,13.84-11.7,13.73-29.64-1.57-39.55-3.5-2.27-8.87-1.66-13.38-2.38,1.22,3.64,2.08,7.46,3.78,10.87,1.3,2.62,4.42,4.45,5.34,7.11,1.03,2.99,1.69,7.17.33,9.65-1.45,2.65-5.42,3.93-8.29,5.81-1.11-2.45-2.37-4.84-3.31-7.35-3.75-9.97-6.47-20.48-11.55-29.71-1.96-3.57-9.17-4.24-13.99-6.23-.25,4.22-1.92,9.03-.44,12.52,2.42,5.7,7.94,10.12,10.2,15.85,2.65,6.73,5.9,15.27,3.74,21.13-1.48,4.01-11.62,5.37-18.13,6.81-4.61,1.02-9.88-.73-14.38.49-4.02,1.09-7.4,4.56-11.06,6.98,3.62,2.27,7.13,6.26,10.88,6.49,13.28.81,26.64.34,39.97.36.51,9.11-1.46,19.31,1.99,27.12,10.44,23.67,22.98,46.41,34.71,69.51-7.33,18.29-17.09,36.05-21.3,55.03-4.3,19.38-11.13,30.86-32.68,30-9.52-.38-19.5.63-28.65,3.2-58.15,16.3-111.51,41.7-157.31,82.14-17.54,15.48-17.33,26.52,3.84,37.25,11.37,3.94,22.56,10.46,34.15,11.27,24.33,1.7,48.94-.59,73.28.99,6.61.43,12.69,8.88,19.01,13.64,3.27,5.26,6.54,10.53,9.81,15.79-1.11,15.15,7.65,23.91,21.03,24.8,70.7,4.73,141.54,12.65,212.19,11.48,125.43-2.08,250.78-9.55,376.13-15.58,31.36-1.51,63.24-2.4,90.01-23.94,15.21-12.25,31.77-23.28,49.02-32.4,16.61-8.78,19.41-19.7,11.77-35.33-.8-1.34-1.27-3.17-2.44-3.96-15.26-10.19-30.29-20.77-46.02-30.19-39.99-23.96-81.14-45.16-128.43-51.08-2.21-.28-5.18-5.92-5.3-9.16-.27-7.19,2.11-14.53,1.45-21.63-.93-10.04-5.26-19.92-5.28-29.87-.11-42.34-18.16-74.4-52.94-97.75-17.18-11.53-33.98-23.62-51.26-34.99-4.18-2.75-11.37-6.65-14.09-4.98-26.03,15.97-51.39,33.02-76.94,49.76-1.88-13.25-2.28-24.58,13.84-31.32,7.36-3.08,12.27-13.17,16.86-20.92,1.18-1.99-3.01-7.18-4.73-10.9-2.29,3.16-4.05,7.03-7.02,9.32-3.73,2.87-8.45,4.44-12.75,6.58,1.23-5.06,2.73-10.08,3.61-15.21.61-3.57.39-7.28.53-10.93-3.65-.14-9.56-1.74-10.57-.18-4.39,6.77-7.08,14.61-10.97,21.74-1.32,2.41-4.36,3.88-6.62,5.77-1.45-2.23-3.83-4.32-4.21-6.72-1.91-12.03-3.23-24.15-4.99-36.21-.14-.97-2.02-1.68-3.1-2.51-4.59,7.84-13.63,16.25-12.73,23.4,1.39,11.05,7.59,28.19,15.28,30.39,16.91,4.83,17.78,11.33,11.36,24.27-.57,3.16-1.14,6.33-1.71,9.49-25.24-11.72-49.54-26.6-75.93-34.38-35.92-10.59-72.23,1.59-103.36,17.22-27,13.56-48.07,38.93-71.77,59.09-14.47-17.38-29-34.5-30.07-59-.35-8.09-3.95-16.03-6.06-24.05Z"/><path class="cls-24" d="m950.23,724.99c7.64,15.63,4.85,26.55-11.77,35.33-17.25,9.12-33.81,20.15-49.02,32.4-26.77,21.55-58.65,22.43-90.01,23.94-125.35,6.03-250.7,13.5-376.13,15.58-70.66,1.17-141.5-6.75-212.19-11.48-13.37-.89-22.13-9.65-21.03-24.8,8.14,1.69,16.34,5.09,24.41,4.81,68.83-2.39,137.65-5.07,206.44-8.47,40.72-2.01,81.44-8.4,122.04-7.44,39.79.94,76.81-14.88,118.92-6.99,49.24,9.23,101.53,3.21,152.46,2.03,51.81-1.2,104.63-1.96,135.88-54.92Z"/><path class="cls-1" d="m950.23,724.99c-31.25,52.96-84.07,53.73-135.88,54.92-50.93,1.18-103.22,7.2-152.46-2.03-42.11-7.89-79.12,7.92-118.92,6.99-40.59-.95-81.31,5.43-122.04,7.44-68.79,3.39-137.61,6.07-206.44,8.47-8.07.28-16.27-3.12-24.41-4.81-3.27-5.26-6.54-10.53-9.81-15.79,8.59-8.73,17.18-17.45,25.77-26.18,0,0-.08.06-.08.06,8.35-.01,16.71-.03,25.06-.04-6.03,6.98-12.06,13.95-18.09,20.93-1.25,1.84-2.5,3.69-3.75,5.53,6.29,1.78,12.66,5.38,18.85,5.08,114.69-5.62,229.36-11.59,344.01-17.84,15.29-.83,31.09-1.62,45.51-6.12,13.5-4.21,25.29-10.29,37.39,1.87,1.44,1.45,4.15,2.28,6.29,2.31,34.77.54,69.54.74,104.31,1.35,54.26.94,108.36,1.03,155.61-31.61,2.42-1.67,2.68-12.33.78-13.46-17.98-10.64-36.65-20.13-55.12-29.94-2.41-2.72-4.33-6.27-7.31-8.02-44.83-26.32-94.21-33.85-145.17-34.65,3.51-7.9,8.67-15.54,9.94-23.79.83-5.41-3.95-11.68-6.22-17.57-6,6.92-12.2,13.69-17.68,21-.5.67,3.59,4.78,5.54,7.29,1.91-1.92,3.82-3.85,5.73-5.77-1.79-1.5-3.59-2.99-5.37-4.5-.8-.68-2.29-1.5-2.2-2.07.23-1.51,1.47-4.24,1.72-4.18,4.74,1.22,12.75,1.81,13.5,4.41,4.13,14.42-2.88,21.55-17.57,21.59-13.62-5.78-11.29-16.76-9.04-27.72,3.16-4.2,6.32-8.4,9.48-12.6,3.24-2.32,6.48-4.64,9.73-6.96-3.37-.11-6.74-.22-10.11-.32-3.21-.88-7.99-3.53-9.35-2.32-4.52,4.02-7.81,9.42-11.58,14.29.11,12.95.21,25.89.32,38.84-6.4-2-12.8-4-19.2-6-.09-8.02-.18-16.04-.27-24.06,2.06-24.78,20.64-39.64,47.29-37.83,20.13,2.18,25.13,16.97,28.13,33.56.62,3.4,1.33,7.12,3.19,9.88,2.3,3.42,5.85,6.01,8.86,8.95,2.28-3.98,6.89-8.25,6.44-11.9-2.61-21.31-6.4-42.47-9.79-63.68-3.58-9.1-5.06-20.07-11.15-26.94-15.83-17.83-33.65-33.9-50.93-50.41-.71-.67-3.94,1.3-6,2.04-1.91,1.5-3.83,2.99-5.74,4.49-3.31-5.1-7.67-9.82-9.73-15.38-4.94-13.36-15.47-17.19-27.3-8.99-22.37,20.3-44.74,40.6-67.12,60.89-2.95-1.06-5.91-2.12-8.86-3.17,1.62-6.85,3.25-13.7,4.87-20.55,1.69-2.94,3.38-5.89,5.08-8.83,25.55-16.74,50.91-33.79,76.94-49.76,2.72-1.67,9.91,2.23,14.09,4.98,17.28,11.38,34.08,23.46,51.26,34.99,34.79,23.36,52.83,55.41,52.94,97.75.03,9.95,4.35,19.83,5.28,29.87.66,7.1-1.72,14.45-1.45,21.63.12,3.24,3.09,8.89,5.3,9.16,47.29,5.91,88.44,27.11,128.43,51.08,15.73,9.42,30.76,20.01,46.02,30.19,1.17.78,1.64,2.61,2.44,3.96Z"/><path class="cls-1" d="m53.84,754.27c-21.17-10.73-21.37-21.77-3.84-37.25,45.8-40.43,99.16-65.84,157.31-82.14,9.16-2.57,19.14-3.58,28.65-3.2,21.55.86,28.38-10.62,32.68-30,4.21-18.99,13.97-36.74,21.3-55.03,3.35,1.16,6.71,2.32,10.06,3.47.15,1.89.29,3.79.44,5.69-3.19,8.44-6.37,16.88-9.56,25.32-2.35,7.24-4.71,14.49-7.06,21.73-3.32,12.3-6.64,24.61-9.96,36.92l-94.09,20.76c-14.08,5.42-29.32,8.94-41.99,16.66-23.44,14.29-45.38,31.05-67.95,46.78-4.97,2.98-9.93,5.97-14.9,8.95,6.46,1.69,12.92,3.41,19.4,5.04.94.24,1.99.03,2.99.03,37.29,0,74.59.21,111.88-.13,11.6-.11,17.18,4.57,16.79,16.18,0,0,.08-.06.08-.06-50.74.09-101.48.18-152.22.27Z"/><path class="cls-16" d="m300.02,529.12c23.69-20.15,44.76-45.53,71.77-59.09,31.13-15.63,67.44-27.81,103.36-17.22,26.4,7.78,50.7,22.67,75.93,34.38-1.73,5.55-3.46,11.11-5.19,16.66-4.16-3.95-7.7-9.03-12.57-11.67-36.25-19.61-72.96-36.78-114.15-12.59-1.79,1.05-4.17,1.75-6.2,1.61-28.14-1.88-52.9,5.48-72.5,26.57-7.5,8.07-14.36,16.74-21.51,25.14-.45.43-.91.85-1.36,1.28l-.22.35c-5.79-1.81-11.57-3.61-17.36-5.42Z"/><path class="cls-27" d="m568.98,491.13c-1.69,2.94-3.38,5.89-5.08,8.83-3.96-7.29,6.46-21.76-11.11-22.25,6.42-12.94,5.55-19.44-11.36-24.27-7.69-2.2-13.89-19.34-15.28-30.39-.9-7.16,8.15-15.56,12.73-23.4,1.07.83,2.96,1.54,3.1,2.51,1.76,12.06,3.08,24.18,4.99,36.21.38,2.4,2.75,4.49,4.21,6.72,2.26-1.9,5.3-3.36,6.62-5.77,3.89-7.13,6.58-14.97,10.97-21.74,1.02-1.57,6.92.03,10.57.18-.15,3.65.08,7.36-.53,10.93-.88,5.12-2.38,10.14-3.61,15.21,4.29-2.13,9.02-3.71,12.75-6.58,2.97-2.29,4.72-6.15,7.02-9.32,1.72,3.72,5.92,8.9,4.73,10.9-4.6,7.75-9.51,17.84-16.86,20.92-16.12,6.74-15.72,18.07-13.84,31.32Z"/><path class="cls-17" d="m600.15,356.08c13.02.77,25-.25,29.51-15.75.19-.65,5.3-1.11,6.68.05,6.07,5.12,10.83,12.24,17.54,16.03,7.27,4.12,8.22,6.3,2.19,12.26-2.77,2.74-5.25,8.02-4.62,11.57,2.71,15.32-4.99,18.81-17.92,17.79-1.94-.15-4.13.11-5.88.91-20.94,9.52-25.41-2.5-26.93-19.78-.33-3.81-4.02-7.33-6.17-10.99,1.86-4.04,3.73-8.07,5.59-12.1Z"/><path class="cls-27" d="m253.24,450.01c-13.33-.01-26.69.46-39.97-.36-3.74-.23-7.26-4.22-10.88-6.49,3.66-2.42,7.04-5.89,11.06-6.98,4.5-1.22,9.77.53,14.38-.49,6.51-1.45,16.65-2.8,18.13-6.81,2.16-5.86-1.09-14.4-3.74-21.13-2.26-5.73-7.78-10.15-10.2-15.85-1.48-3.49.19-8.3.44-12.52,4.82,1.99,12.03,2.67,13.99,6.23,5.08,9.23,7.8,19.74,11.55,29.71.94,2.51,2.2,4.9,3.31,7.35,2.87-1.88,6.85-3.15,8.29-5.81,1.35-2.48.7-6.66-.33-9.65-.92-2.66-4.04-4.49-5.34-7.11-1.7-3.4-2.56-7.23-3.78-10.87,4.51.72,9.88.11,13.38,2.38,15.3,9.91,15.41,27.84,1.57,39.55-4.63,3.92-7.54,9.88-11.23,14.9-3.55,1.31-7.09,2.63-10.64,3.94Z"/><path class="cls-23" d="m798.96,336.65c1.62,24.69-19.6,25.01-33.99,28.48-26.29,6.34-53.51,9-80.43,12.48-3.48.45-7.5-3.3-11.27-5.11,5.95-3.79,11.51-9.84,17.92-10.96,25.67-4.48,51.83-6.4,77.29-11.73,5.58-1.17,9.05-12.42,13.49-19.03,5.66,1.95,11.32,3.91,16.98,5.86Z"/><path class="cls-13" d="m253.24,450.01c3.55-1.31,7.09-2.63,10.64-3.94,2.11,8.01,5.71,15.96,6.06,24.05,1.07,24.5,15.6,41.62,30.07,59,5.79,1.81,11.57,3.61,17.36,5.42-5.79,5.19-11.58,10.39-17.38,15.58-3.35-1.16-6.71-2.32-10.06-3.47-11.72-23.1-24.26-45.84-34.7-69.51-3.45-7.81-1.48-18.01-1.99-27.12Z"/><path class="cls-24" d="m53.84,754.27c50.74-.09,101.48-.18,152.22-.27-8.59,8.73-17.18,17.45-25.77,26.18-6.32-4.77-12.41-13.21-19.01-13.64-24.35-1.59-48.95.71-73.28-.99-11.59-.81-22.78-7.33-34.15-11.27Z"/><path class="cls-19" d="m668.03,320.26c-14.39-7.61-28.84-15.12-43.11-22.95-1.99-1.09-3.52-3.61-4.51-5.8-1.76-3.91-2.95-8.08-4.37-12.14,5.14.87,10.87.57,15.3,2.83,12.52,6.39,24.5,13.84,36.69,20.87,9.68,2.31,19.36,4.61,29.05,6.92-.34,10.81-2.11,19.54-16.47,13.16-3.86-1.71-8.36-1.96-12.57-2.88Z"/><path class="cls-14" d="m668.03,320.26c4.21.92,8.72,1.17,12.57,2.88,14.36,6.38,16.13-2.35,16.47-13.16.33-2.02.66-4.03.99-6.05,7.94.07,19.68-13.84,22.22,6.05,1.4,5.35,2.79,10.7,4.19,16.06-2.79,13.6-11.26,16.12-24.36,15.65-16.1-.58-28.22-3.97-32.08-21.43Z"/><path class="cls-7" d="m552.79,477.7c17.58.49,7.15,14.96,11.11,22.25-1.62,6.85-3.25,13.7-4.87,20.55-4.12,10.12-8.25,20.25-12.37,30.37-3.55,5.1-7.11,10.2-10.66,15.3-6.85-.8-9.92-1.62-6.19-10.68,6.83-16.6,10.87-34.36,16.07-51.63,1.73-5.55,3.46-11.11,5.19-16.66.57-3.16,1.14-6.33,1.71-9.49Z"/><path class="cls-17" d="m798.96,336.65c-5.66-1.95-11.32-3.91-16.98-5.86-2.49-6.56-20.49-.99-12.49-15.45,5.64-10.19,27.26-11.87,33.83-2.57,5.22,7.39,10.44,15.45,12.69,23.99,1.15,4.38-3.51,12.16-10.62,3.41-1.43-1.76-4.25-2.38-6.43-3.52Z"/><path class="cls-9" d="m698.06,303.92c-.33,2.02-.66,4.03-.99,6.05-9.68-2.31-19.36-4.61-29.05-6.92,2.57-5.74,5.15-11.48,7.72-17.22,3.64-8.15,7.68-11.91,13.42-1.44.22.41,3.16.14,3.9-.66,7.34-7.93,11.85-22.08,27.1-11.73-.07,5.08-.15,10.16-.22,15.24-8.49,4-26.16-4.05-21.88,16.69Z"/><path class="cls-22" d="m572.95,334.92c14.9-12.42,31.27-18.4,50.46-11.11,1.21.46,2.74,2.75,2.48,3.77-.41,1.63-1.93,3.66-3.46,4.22-12.39,4.58-24.9,8.85-37.37,13.22-4.04-3.37-8.07-6.73-12.11-10.1Z"/><path class="cls-23" d="m724.47,326.03c-1.4-5.35-2.79-10.7-4.19-16.06,6.24-3.66,12.48-7.31,18.72-10.97-.58-4.75-1.16-9.5-1.74-14.24,5.58,5.16,15.31,10.05,15.67,15.54.42,6.55-6.16,14.69-11.7,20.08-3.82,3.7-11.05,3.89-16.75,5.65Z"/><path class="cls-23" d="m572.95,334.92c4.04,3.37,8.07,6.73,12.11,10.1,5.03,3.69,10.06,7.38,15.09,11.06-1.86,4.03-3.73,8.07-5.59,12.1-10.32-5.79-20.64-11.58-30.96-17.38,3.11-5.3,6.23-10.6,9.34-15.89Z"/><path class="cls-22" d="m646.03,252.21c13.65,2.91,27.38,5.53,40.89,8.97,2.62.67,4.41,4.55,6.59,6.95-2.36,1.26-4.8,3.74-7.06,3.58-13.25-.93-26.45-2.47-39.67-3.8-.25-5.24-.5-10.47-.75-15.71Z"/><path class="cls-9" d="m646.03,252.21c.25,5.24.5,10.47.75,15.71-5.24.92-10.45,2.25-15.72,2.47-1.27.05-3.45-3.39-3.93-5.52-4.57-20.25,6.48-17.53,18.89-12.65Z"/><path class="cls-22" d="m737.26,284.76c.58,4.75,1.16,9.5,1.74,14.24-6.35-3.92-12.7-7.85-19.06-11.77.07-5.08.15-10.16.22-15.24,5.7,4.26,11.4,8.51,17.1,12.76Z"/><path class="cls-12" d="m545.89,503.86c-5.2,17.27-9.24,35.03-16.07,51.63-3.73,9.06-.66,9.88,6.19,10.68,2.78,1.05,6.69,3.81,8.14,2.85,7.18-4.75,10.83-10.85,2.53-18.15,4.12-10.12,8.25-20.25,12.37-30.37,2.95,1.06,5.91,2.12,8.86,3.17,6.65,7.48,13.3,14.96,19.95,22.44,1.03,2,1.82,4.18,3.13,5.99,15.01,20.65,30.09,41.25,45.16,61.86-7.36,11.69-14.71,23.37-22.06,35.06-4.58-10.76-8.87-20.87-22.21-7.53-10.89,10.9-8.08,22.41-3.77,34.51-3.73,3.62-7.46,7.25-11.19,10.87-.33.33-.65.67-.98,1l-.07-.02c-5.95,3.39-11.89,6.78-17.84,10.17-1.88-.08-3.77-.15-5.65-.23-8.43-21.35-15.72-43.26-25.86-63.77-3.97-8.03-14.27-18.01-21.76-18.06-12.28-.09-11.87-3.32-10.23-12.47.59-3.29-2.79-7.29-4.36-10.97-2.67,2.57-6.22,4.69-7.84,7.81-3.07,5.91-3.63,16.51-7.71,17.9-13.45,4.59-13.28,13.81-12.68,24.51.18,3.29.25,8.9-1.32,9.58-8.2,3.58-17.11,5.47-25.46,8.76-22.46,8.84-49.47,10.25-61.4,36.73-6.58.02-13.16.04-19.74.06-3.92-1.98-7.85-3.95-11.77-5.93,1.67-9.51,3.54-19,4.88-28.56.34-2.4-1.09-5.02-1.56-7.57-1.17-6.47-3.09-12.96-3.06-19.43.02-3.78,4.58-7.54,4.59-11.32.01-4.69-2.57-9.38-4.04-14.07-3.1,1.06-6.43,1.71-9.23,3.3-3.51,1.99-9.31,7.04-9.46,6.85-12.05-14.35-16.17,4.08-24.12,5.68-1.34.27-3.68,1.07-3.86.73-4.32-8.16-8.41-16.44-12.55-24.71,2.35-7.24,4.71-14.49,7.07-21.73,4.45-3.42,9.09-6.62,13.3-10.31,3.91-3.42,7.37-7.34,11.02-11.05-4.92-1.32-9.84-2.65-14.77-3.97-.15-1.9-.29-3.79-.44-5.69,5.79-5.19,11.58-10.38,17.38-15.58,0,0,.22-.35.22-.35.45-.43.91-.85,1.36-1.28,7.15-8.4,14.01-17.07,21.51-25.14,19.6-21.09,44.37-28.45,72.5-26.57,2.04.14,4.42-.56,6.2-1.61,41.19-24.19,77.9-7.01,114.15,12.59,4.87,2.63,8.42,7.72,12.57,11.67Z"/><path class="cls-5" d="m552.35,697.8c1.88.08,3.77.15,5.65.23.6,4.56,1.21,9.11,1.81,13.67,1.2-.27,3.09-.15,3.5-.86,4.31-7.58,8.39-15.3,12.53-22.98,0,0,.07.02.07.02.33-.33.65-.67.98-1,3.73-3.62,7.46-7.25,11.19-10.87,8.67-6.69,17.35-13.38,26.02-20.07,5.14.02,10.31-.26,15.41.18,3.51.3,9.86,1.4,9.92,2.47.52,8.12,1.5,16.85-.9,24.36-4.31,13.46-1.38,19.81,13.23,19.26,1.09,1.63,2.17,3.27,3.26,4.9,4.52,5.54,8.23,14.72,13.72,15.96,20.85,4.68,42.27,6.79,63.48,9.86,2.59-.06,5.51.64,7.71-.32,6.55-2.86,12.61-8.44,19.25-9.12,8.76-.9,17.89,1.9,26.88,2.98.96.11,2.02-.62,3.03-.97-.99-.51-1.94-1.19-2.99-1.51-16.89-5.18-33.89-10.04-50.57-15.83-1.84-.64-1.87-6.5-2.74-9.94,11.61-.93,23.5-3.94,34.76-2.39,31.18,4.3,61.53,19.14,93.69,6.29,2.75-1.1,3.76-6.56,5.58-9.99,18.47,9.82,37.14,19.3,55.12,29.94,1.9,1.13,1.64,11.79-.78,13.46-47.25,32.64-101.35,32.55-155.61,31.61-34.77-.6-69.54-.81-104.31-1.35-2.14-.03-4.85-.86-6.29-2.31-12.09-12.16-23.89-6.08-37.39-1.87-14.42,4.5-30.22,5.28-45.51,6.12-114.65,6.26-229.32,12.22-344.01,17.84-6.19.3-12.56-3.3-18.85-5.08,1.25-1.84,2.5-3.69,3.75-5.53,1.06.33,2.12.99,3.17.96,59.41-1.93,118.85-3.1,178.19-6.27,24.81-1.33,49.39-6.9,74.07-10.61,1.27-.19,2.45-.95,3.67-1.45-1.22-.8-2.36-2.12-3.67-2.31-13.25-1.86-26.74-2.56-39.76-5.43-41.59-9.17-83.24-18.25-124.38-29.19-17.54-4.66-32.07-9.52-45.18,9-6.95,9.81-18.53,16.34-28.02,24.35-8.35.01-16.71.03-25.06.04.39-11.61-5.18-16.29-16.79-16.18-37.29.34-74.59.13-111.88.13-1,0-2.05.2-2.99-.03-6.48-1.63-12.94-3.35-19.4-5.04,4.97-2.98,9.93-5.97,14.9-8.95,47.58,0,95.16.27,142.74-.09,22.53-.17,43.9-4.7,60.46-21.9.47-13.98.95-27.97,1.42-41.95,3,.95,6.18,1.53,8.96,2.91,19.35,9.62,38.61,19.4,57.91,29.13-1.1,5.15-2.2,10.31-3.31,15.46,5.12-2.97,10.24-5.93,15.35-8.91.27-.16.44-.48.65-.73,6.58-.02,13.16-.04,19.74-.06,31.4,6.46,62.76,17.68,94.22,17.97,28.07.27,56.26-11.53,84.39-18Z"/><path class="cls-2" d="m866.83,692.11c-1.82,3.43-2.83,8.89-5.58,9.99-32.16,12.85-62.51-1.99-93.69-6.29-11.26-1.55-23.16,1.46-34.76,2.39.87,3.44.9,9.3,2.74,9.94,16.68,5.79,33.68,10.65,50.57,15.83,1.05.32,2,1,2.99,1.51-1.01.34-2.07,1.08-3.03.97-8.99-1.08-18.12-3.87-26.88-2.98-6.64.68-12.7,6.26-19.25,9.12-2.2.96-5.12.26-7.71.32-16.21-5.96-32.32-12.19-48.65-17.79-9.34-3.2-19.02-5.38-28.55-8.03-1.09-1.63-2.17-3.27-3.26-4.9.07-16.46.5-32.94.03-49.39-.22-7.92-.2-13.78,10.21-9.74,6.4,2,12.8,4,19.2,6,4.3.23,8.61.47,12.91.7,3.37.03,6.74.05,10.1.07,3.38-.13,6.76-.26,10.14-.39,50.96.8,100.34,8.33,145.17,34.65,2.98,1.75,4.9,5.31,7.31,8.02Z"/><path class="cls-15" d="m636.13,613.96c-15.07-20.61-30.15-41.21-45.16-61.86-1.31-1.8-2.1-3.98-3.13-5.99,3.73-5.88,7.77-11.59,11.14-17.66,12.13-21.82,24.03-43.77,36.02-65.67,11.84-8.2,22.37-4.37,27.3,8.99,2.06,5.57,6.42,10.28,9.73,15.38.39,1.42.66,2.9,1.2,4.27,11.91,29.92,23.85,59.83,35.78,89.74-26.65-1.82-45.23,13.05-47.29,37.83-8.54-1.68-17.07-3.36-25.61-5.04Z"/><path class="cls-26" d="m231.04,754.01c9.49-8.01,21.08-14.54,28.02-24.35,13.11-18.52,27.64-13.66,45.18-9,41.14,10.94,82.79,20.02,124.38,29.19,13.02,2.87,26.51,3.57,39.76,5.43,1.3.18,2.45,1.51,3.67,2.31-1.22.5-2.4,1.26-3.67,1.45-24.68,3.7-49.26,9.28-74.07,10.61-59.34,3.17-118.79,4.35-178.19,6.27-1.04.03-2.11-.62-3.17-.96,6.03-6.98,12.06-13.95,18.09-20.93Z"/><path class="cls-21" d="m709.03,581.17c-11.93-29.91-23.88-59.82-35.78-89.74-.54-1.37-.81-2.84-1.2-4.27,1.91-1.5,3.83-2.99,5.74-4.49,18.28,19.48,36.66,38.87,54.78,58.49,4.83,5.24,8.89,11.19,13.3,16.82,3.39,21.21,7.19,42.37,9.79,63.68.45,3.65-4.17,7.92-6.44,11.9-3.01-2.95-6.56-5.53-8.86-8.95-1.86-2.77-2.58-6.48-3.19-9.88-3-16.59-8-31.37-28.13-33.56Z"/><path class="cls-11" d="m636.13,613.96c8.54,1.68,17.07,3.36,25.61,5.04.09,8.02.18,16.04.27,24.06-10.4-4.03-10.43,1.83-10.21,9.75.47,16.45.03,32.92-.03,49.39-14.61.56-17.54-5.79-13.23-19.26,2.4-7.51,1.42-16.25.9-24.36-.07-1.06-6.42-2.17-9.92-2.47-5.1-.43-10.27-.15-15.41-.17-.01-2.3-.03-4.61-.04-6.92,7.36-11.69,14.71-23.37,22.06-35.06Z"/><path class="cls-8" d="m635.01,462.79c-11.99,21.9-23.89,43.84-36.02,65.67-3.38,6.08-7.41,11.78-11.14,17.66-6.65-7.48-13.3-14.96-19.95-22.44,22.37-20.3,44.74-40.59,67.11-60.89Z"/><path class="cls-4" d="m745.86,557.99c-4.41-5.63-8.47-11.58-13.3-16.82-18.12-19.62-36.5-39.01-54.78-58.49,2.06-.74,5.29-2.71,6-2.04,17.28,16.51,35.1,32.58,50.93,50.41,6.1,6.87,7.57,17.84,11.15,26.94Z"/><path class="cls-18" d="m694.11,649.75c-4.3-.23-8.61-.47-12.91-.7-.11-12.95-.21-25.89-.32-38.84,3.94,2.64,7.89,5.28,11.83,7.92-2.25,10.96-4.58,21.94,9.04,27.72.1,1.01.21,2.02.31,3.03-2.65.29-5.3.59-7.95.88Z"/><path class="cls-10" d="m702.07,648.87c-.1-1.01-.2-2.02-.31-3.03,14.69-.04,21.69-7.17,17.57-21.59-.75-2.61-8.76-3.2-13.5-4.41-.25-.06-1.5,2.67-1.72,4.18-.08.57,1.4,1.39,2.2,2.07,1.78,1.51,3.58,3,5.37,4.5-1.91,1.92-3.82,3.85-5.73,5.77-1.96-2.51-6.04-6.62-5.54-7.29,5.48-7.31,11.68-14.08,17.68-21,2.27,5.89,7.05,12.16,6.22,17.57-1.27,8.24-6.43,15.89-9.94,23.79-3.38.13-6.76.26-10.14.39-.72-.32-1.43-.63-2.15-.95Z"/><path class="cls-25" d="m692.72,618.13c-3.94-2.64-7.89-5.28-11.83-7.92,3.76-4.87,7.05-10.27,11.58-14.29,1.36-1.21,6.14,1.44,9.35,2.32.13,2.43.26,4.86.39,7.29-3.16,4.2-6.32,8.4-9.48,12.6Z"/><path class="cls-10" d="m702.2,605.53c-.13-2.43-.26-4.86-.39-7.29,3.37.11,6.74.22,10.11.32-3.24,2.32-6.48,4.64-9.73,6.96Z"/><path class="cls-26" d="m273.02,701.98c-16.56,17.21-37.93,21.73-60.46,21.9-47.58.36-95.16.09-142.74.09,22.57-15.73,44.51-32.48,67.95-46.78,12.67-7.73,27.91-11.25,41.99-16.66-.88,8.99,2.14,9.99,10.07,6.2,14.46-6.91,24.98,1.26,23.38,17.11-.34,3.33.89,9.78,1.13,9.77,11.45-.61,22.88-1.65,34.28-2.97,2.1-.24,5.48-3.09,5.81-2.68,2.85,3.42,5.13,7.31,7.83,11.18-.48-.05-.89-.27-1.23-.19-.58.14-1.12.48-1.68.73.37.37.83,1.09,1.1,1.03.57-.13,1.03-.68,1.81-1.57,3.42.87,7.09,1.86,10.76,2.85Zm-125.57-6.57c11.32-6.63,19.33-11.33,27.35-16.02-2.07-1.47-5-4.67-6.06-4.13-8.05,4.06-15.78,8.76-23.39,13.61-.42.27,1.13,3.62,2.1,6.54Z"/><path class="cls-6" d="m341.31,692.08c-19.29-9.73-38.56-19.52-57.91-29.13-2.78-1.38-5.96-1.96-8.96-2.91-.2-6.75-.39-13.51-.59-20.26,3.32-12.31,6.64-24.61,9.96-36.92,4.13,8.26,8.22,16.55,12.55,24.71.18.34,2.53-.46,3.86-.73,7.95-1.59,12.07-20.03,24.12-5.68.15.18,5.95-4.86,9.46-6.85,2.8-1.59,6.14-2.23,9.23-3.3,1.46,4.69,4.05,9.38,4.04,14.07,0,3.78-4.57,7.54-4.59,11.32-.03,6.47,1.89,12.96,3.06,19.43.46,2.55,1.89,5.17,1.56,7.57-1.34,9.56-3.21,19.05-4.88,28.56-.31.05-.62.09-.93.11Z"/><path class="cls-25" d="m273.85,639.77c.2,6.75.39,13.51.59,20.26-.47,13.98-.95,27.97-1.42,41.95-3.67-.99-7.34-1.98-11.01-2.97-2.45-3.75-4.73-7.64-7.58-11.06-.33-.4-3.71,2.44-5.81,2.68-11.4,1.32-22.83,2.37-34.28,2.97-.24.01-1.47-6.44-1.13-9.77,1.6-15.85-8.93-24.02-23.38-17.11-7.92,3.79-10.95,2.8-10.07-6.2,31.36-6.92,62.73-13.84,94.09-20.76Z"/><path class="cls-6" d="m300.43,555.8c4.92,1.32,9.84,2.65,14.77,3.97-3.66,3.7-7.12,7.63-11.02,11.05-4.21,3.68-8.85,6.89-13.3,10.31,3.19-8.44,6.37-16.88,9.56-25.32Z"/><path class="cls-13" d="m318.95,532.91c-.45.43-.91.85-1.36,1.28.45-.43.91-.85,1.36-1.28Z"/><path class="cls-3" d="m719.94,287.24c6.35,3.92,12.7,7.85,19.06,11.77-6.24,3.66-12.48,7.31-18.72,10.97-2.54-19.89-14.28-5.98-22.22-6.05-4.27-20.74,13.39-12.69,21.88-16.69Z"/><path class="cls-11" d="m546.67,550.88c8.31,7.3,4.66,13.4-2.53,18.15-1.45.96-5.36-1.81-8.14-2.85,3.55-5.1,7.11-10.2,10.66-15.3Z"/><path class="cls-6" d="m552.35,697.8c-28.14,6.47-56.32,18.27-84.39,18-31.46-.3-62.81-11.51-94.22-17.97,11.93-26.48,38.94-27.89,61.4-36.74,8.35-3.29,17.26-5.18,25.46-8.76,1.57-.68,1.5-6.29,1.32-9.58-.6-10.71-.77-19.93,12.68-24.51,4.08-1.39,4.64-11.98,7.71-17.9,1.62-3.12,5.16-5.24,7.84-7.81,1.57,3.68,4.95,7.68,4.36,10.97-1.63,9.14-2.05,12.38,10.23,12.47,7.48.05,17.79,10.03,21.76,18.06,10.14,20.51,17.43,42.42,25.86,63.77Z"/><path class="cls-6" d="m614.06,649.02c.01,2.31.02,4.61.04,6.92-8.67,6.69-17.35,13.38-26.02,20.07-4.31-12.1-7.12-23.61,3.77-34.51,13.33-13.35,17.62-3.23,22.21,7.53Z"/><path class="cls-11" d="m575.84,687.86c-4.14,7.68-8.21,15.4-12.53,22.98-.41.72-2.3.6-3.5.86-.6-4.56-1.21-9.11-1.81-13.67,5.95-3.39,11.89-6.78,17.84-10.17Z"/><path class="cls-11" d="m341.31,692.08c.31-.02.62-.06.93-.11,3.92,1.98,7.85,3.95,11.77,5.93-.22.25-.39.57-.65.73-5.11,2.98-10.23,5.95-15.35,8.91,1.1-5.15,2.2-10.31,3.31-15.46Z"/><path class="cls-11" d="m576.89,686.88c-.33.33-.65.67-.98,1,.32-.33.65-.67.98-1Z"/><path class="cls-6" d="m655.02,707.09c9.53,2.64,19.22,4.82,28.55,8.03,16.33,5.6,32.44,11.83,48.65,17.79-21.21-3.07-42.63-5.18-63.48-9.86-5.49-1.23-9.19-10.42-13.72-15.96Z"/><path class="cls-6" d="m702.07,648.87c.72.32,1.43.63,2.15.95-3.37-.02-6.74-.05-10.1-.07,2.65-.29,5.3-.59,7.95-.88Z"/><path class="cls-25" d="m147.45,695.41c-.97-2.93-2.52-6.28-2.1-6.54,7.61-4.85,15.34-9.56,23.39-13.61,1.06-.53,4,2.66,6.06,4.13-8.02,4.7-16.03,9.39-27.35,16.02Z"/><path class="cls-25" d="m262.51,699.25c-1.03.77-1.49,1.32-2.06,1.45-.27.06-.73-.66-1.1-1.03.56-.25,1.1-.59,1.68-.73.33-.08.74.14,1.48.31Z"/></svg>