<?xml version="1.0" encoding="UTF-8" standalone="no"?>
<svg
   version="1.1"
   width="800px"
   height="800px"
   style="shape-rendering:geometricPrecision; text-rendering:geometricPrecision; image-rendering:optimizeQuality; fill-rule:evenodd; clip-rule:evenodd"
   id="svg132"
   sodipodi:docname="birdgreen23.svg"
   inkscape:version="1.3 (0e150ed6c4, 2023-07-21)"
   xmlns:inkscape="http://www.inkscape.org/namespaces/inkscape"
   xmlns:sodipodi="http://sodipodi.sourceforge.net/DTD/sodipodi-0.dtd"
   xmlns:xlink="http://www.w3.org/1999/xlink"
   xmlns="http://www.w3.org/2000/svg"
   xmlns:svg="http://www.w3.org/2000/svg">
  <defs
     id="defs132">
    <linearGradient
       id="linearGradient1"
       inkscape:collect="always">
      <stop
         style="stop-color:#1c3813;stop-opacity:1;"
         offset="0"
         id="stop1" />
      <stop
         style="stop-color:#1b4119;stop-opacity:1;"
         offset="1"
         id="stop2" />
    </linearGradient>
    <linearGradient
       inkscape:collect="always"
       xlink:href="#linearGradient1"
       id="linearGradient2"
       x1="13.950321"
       y1="376.6586"
       x2="746.34204"
       y2="371.07849"
       gradientUnits="userSpaceOnUse" />
  </defs>
  <sodipodi:namedview
     id="namedview132"
     pagecolor="#ffffff"
     bordercolor="#999999"
     borderopacity="1"
     inkscape:showpageshadow="2"
     inkscape:pageopacity="0"
     inkscape:pagecheckerboard="0"
     inkscape:deskcolor="#d1d1d1"
     showgrid="false"
     inkscape:zoom="0.7168295"
     inkscape:cx="498.72389"
     inkscape:cy="540.57485"
     inkscape:window-width="1920"
     inkscape:window-height="1046"
     inkscape:window-x="-11"
     inkscape:window-y="-11"
     inkscape:window-maximized="1"
     inkscape:current-layer="svg132" />
  <g
     id="g1">
    <path
       style="opacity:1"
       fill="#3e5e30"
       d="M -0.5,-0.5 C 266.167,-0.5 532.833,-0.5 799.5,-0.5C 799.5,266.167 799.5,532.833 799.5,799.5C 532.833,799.5 266.167,799.5 -0.5,799.5C -0.5,532.833 -0.5,266.167 -0.5,-0.5 Z"
       id="path1" />
  </g>
  <g
     id="g2">
    <path
       style="opacity:1"
       fill="#f4f6f4"
       d="M 374.5,10.5 C 491.885,5.38675 592.885,43.0534 677.5,123.5C 761.883,211.307 799.716,316.307 791,438.5C 777.584,556.131 723.084,650.298 627.5,721C 583.247,751.309 534.914,772.309 482.5,784C 357.009,806.544 245.342,778.211 147.5,699C 77.3374,637.36 33.5041,561.193 16,470.5C -4.89314,318.815 42.6069,193.315 158.5,94C 222.164,44.8943 294.164,17.0609 374.5,10.5 Z"
       id="path2" />
  </g>
  <g
     id="g3">
    <path
       style="opacity:1"
       fill="#517d2c"
       d="M 374.5,53.5 C 330.085,56.6131 288.085,68.1131 248.5,88C 254.201,90.8315 254.867,94.4982 250.5,99C 242.953,102.331 235.453,102.164 228,98.5C 226.099,99.5355 224.265,100.702 222.5,102C 225.833,103.333 229.167,104.667 232.5,106C 236.644,109.979 236.31,113.645 231.5,117C 221.599,122.659 212.932,121.159 205.5,112.5C 201.696,114.805 198.03,117.305 194.5,120C 201.186,119.263 206.686,121.43 211,126.5C 212.291,131.562 210.458,135.062 205.5,137C 195.912,139.857 187.079,138.357 179,132.5C 174.828,136.006 170.662,139.506 166.5,143C 174.484,141.299 181.817,142.799 188.5,147.5C 190.569,152.485 189.236,156.318 184.5,159C 174.128,166.326 163.795,166.326 153.5,159C 152.167,158.333 150.833,158.333 149.5,159C 75.7004,238.283 43.867,332.449 54,441.5C 55.704,455.315 58.204,468.982 61.5,482.5C 65.9223,473.639 70.7556,473.306 76,481.5C 77.4725,485.723 78.4725,490.057 79,494.5C 86.0646,485.986 92.0646,486.653 97,496.5C 99.2452,504.718 98.5786,512.718 95,520.5C 91.0142,527.642 86.1809,534.142 80.5,540C 88.8395,559.852 98.8395,578.686 110.5,596.5C 109.661,601.668 107.161,602.668 103,599.5C 94.7879,586.246 86.9546,572.746 79.5,559C 70.1365,559.722 61.4699,557.722 53.5,553C 46.0724,547.523 45.7391,541.856 52.5,536C 58.6136,535.113 64.2803,536.279 69.5,539.5C 70.1296,535.388 68.9629,531.721 66,528.5C 30.9102,428.644 36.5769,331.311 83,236.5C 99.048,205.442 119.381,177.442 144,152.5C 142.652,147.56 141.819,142.393 141.5,137C 141.199,127.306 145.199,119.972 153.5,115C 158.274,113.639 161.774,115.139 164,119.5C 164.499,123.486 164.666,127.486 164.5,131.5C 167.064,130.134 169.564,128.467 172,126.5C 171.67,120.521 171.67,114.521 172,108.5C 173.072,103.188 175.572,98.6876 179.5,95C 183.898,93.6215 187.398,94.7882 190,98.5C 191.029,102.429 191.863,106.429 192.5,110.5C 195.205,108.488 197.872,106.488 200.5,104.5C 195.105,94.4393 197.105,86.2726 206.5,80C 210.793,78.7984 214.293,79.9651 217,83.5C 217.176,86.8818 217.676,90.2152 218.5,93.5C 220.583,92.0413 222.75,90.7079 225,89.5C 224.396,81.706 226.896,75.206 232.5,70C 240.44,68.1012 244.44,71.2678 244.5,79.5C 296.309,53.7288 351.309,42.2288 409.5,45C 413.223,46.2587 414.223,48.5921 412.5,52C 399.66,52.1691 386.993,52.6691 374.5,53.5 Z"
       id="path3" />
  </g>
  <g
     id="g4">
    <path
       style="opacity:1"
       fill="#507c2b"
       d="M 465.5,58.5 C 451.653,56.0849 437.653,54.0849 423.5,52.5C 423.104,49.9556 423.771,47.7889 425.5,46C 441.054,45.969 456.387,47.8023 471.5,51.5C 473.885,57.4531 471.885,59.7864 465.5,58.5 Z"
       id="path4" />
  </g>
  <g
     id="g5">
    <path
       style="opacity:1"
       fill="#edfbfe"
       d="M 423.5,52.5 C 437.653,54.0849 451.653,56.0849 465.5,58.5C 473.315,59.0958 480.982,60.7625 488.5,63.5C 496.819,65.9622 505.153,68.2956 513.5,70.5C 516.443,71.3674 519.443,72.3674 522.5,73.5C 528.175,75.6766 533.842,78.0099 539.5,80.5C 543.593,82.3092 547.593,84.3092 551.5,86.5C 553.167,87.1667 554.833,87.8333 556.5,88.5C 559.759,90.1528 563.093,91.8195 566.5,93.5C 567.833,94.1667 569.167,94.8333 570.5,95.5C 574.142,97.4586 577.809,99.4586 581.5,101.5C 619.791,125.34 652.791,155.173 680.5,191C 680,191.167 679.5,191.333 679,191.5C 670.479,186.411 661.312,184.578 651.5,186C 646.505,191.185 646.338,196.685 651,202.5C 658.39,209.426 667.223,212.259 677.5,211C 672.744,214.389 670.91,218.889 672,224.5C 676.876,228.185 682.043,228.351 687.5,225C 691.752,222.581 694.752,219.081 696.5,214.5C 737.885,279.91 755.718,351.577 750,429.5C 744.662,487.747 726.662,541.414 696,590.5C 695.899,585.054 695.232,579.721 694,574.5C 688.667,567.833 683.333,567.833 678,574.5C 673.811,582.953 671.978,591.953 672.5,601.5C 660.905,598.93 656.405,603.597 659,615.5C 660.513,619.681 662.846,623.348 666,626.5C 666.667,627.833 666.667,629.167 666,630.5C 659.365,638.136 652.365,645.47 645,652.5C 645.359,647.193 645.359,641.859 645,636.5C 641.092,629.966 635.592,628.132 628.5,631C 620.948,636.605 617.615,644.105 618.5,653.5C 618.001,660.179 619.668,666.179 623.5,671.5C 622.135,672.941 620.635,674.274 619,675.5C 620.421,666.254 616.588,662.421 607.5,664C 605.622,665.543 604.122,667.376 603,669.5C 602.362,674.925 602.862,680.259 604.5,685.5C 554.26,722.337 497.927,743.837 435.5,750C 373.309,755.654 313.975,745.821 257.5,720.5C 254.211,719.172 250.878,717.838 247.5,716.5C 236.282,710.631 225.282,704.298 214.5,697.5C 211.669,695.583 208.669,693.917 205.5,692.5C 196.111,685.958 187.111,678.791 178.5,671C 176.735,670.36 175.068,670.527 173.5,671.5C 174.508,667.452 172.842,664.785 168.5,663.5C 160.779,655.113 152.779,647.113 144.5,639.5C 142.471,637.142 140.471,634.808 138.5,632.5C 131.137,623.475 123.803,614.475 116.5,605.5C 114.745,602.32 112.745,599.32 110.5,596.5C 98.8395,578.686 88.8395,559.852 80.5,540C 86.1809,534.142 91.0142,527.642 95,520.5C 98.5786,512.718 99.2452,504.718 97,496.5C 92.0646,486.653 86.0646,485.986 79,494.5C 78.4725,490.057 77.4725,485.723 76,481.5C 70.7556,473.306 65.9223,473.639 61.5,482.5C 58.204,468.982 55.704,455.315 54,441.5C 43.867,332.449 75.7004,238.283 149.5,159C 150.833,158.333 152.167,158.333 153.5,159C 163.795,166.326 174.128,166.326 184.5,159C 189.236,156.318 190.569,152.485 188.5,147.5C 181.817,142.799 174.484,141.299 166.5,143C 170.662,139.506 174.828,136.006 179,132.5C 187.079,138.357 195.912,139.857 205.5,137C 210.458,135.062 212.291,131.562 211,126.5C 206.686,121.43 201.186,119.263 194.5,120C 198.03,117.305 201.696,114.805 205.5,112.5C 212.932,121.159 221.599,122.659 231.5,117C 236.31,113.645 236.644,109.979 232.5,106C 229.167,104.667 225.833,103.333 222.5,102C 224.265,100.702 226.099,99.5355 228,98.5C 235.453,102.164 242.953,102.331 250.5,99C 254.867,94.4982 254.201,90.8315 248.5,88C 288.085,68.1131 330.085,56.6131 374.5,53.5C 390.848,53.662 407.181,53.3287 423.5,52.5 Z"
       id="path5" />
  </g>
  <g
     id="g6">
    <path
       style="opacity:1"
       fill="#517e2d"
       d="M 513.5,70.5 C 505.153,68.2956 496.819,65.9622 488.5,63.5C 487.122,62.7656 485.622,62.0989 484,61.5C 482.958,58.1961 484.125,56.0295 487.5,55C 489.5,54.3333 491.5,54.3333 493.5,55C 499.867,56.8741 506.201,58.8741 512.5,61C 515.979,63.9947 516.312,67.1614 513.5,70.5 Z"
       id="path6" />
  </g>
  <g
     id="g7">
    <path
       style="opacity:1"
       fill="#527e2e"
       d="M 539.5,80.5 C 533.842,78.0099 528.175,75.6766 522.5,73.5C 522.297,71.6096 522.963,70.1096 524.5,69C 531.372,68.3468 537.539,70.1801 543,74.5C 544.392,78.2204 543.225,80.2204 539.5,80.5 Z"
       id="path7" />
  </g>
  <g
     id="g8">
    <path
       style="opacity:1"
       fill="#bfceb2"
       d="M 234.5,75.5 C 235.5,75.5 236.5,75.5 237.5,75.5C 236.712,79.066 234.878,82.066 232,84.5C 231.131,81.0072 231.964,78.0072 234.5,75.5 Z"
       id="path8" />
  </g>
  <g
     id="g9">
    <path
       style="opacity:1"
       fill="#517d2c"
       d="M 556.5,88.5 C 554.833,87.8333 553.167,87.1667 551.5,86.5C 547.872,80.6476 549.539,78.4809 556.5,80C 561.281,81.5262 562.281,84.1928 559.5,88C 558.552,88.4828 557.552,88.6495 556.5,88.5 Z"
       id="path9" />
  </g>
  <g
     id="g10">
    <path
       style="opacity:1"
       fill="#517d2c"
       d="M 570.5,95.5 C 569.167,94.8333 567.833,94.1667 566.5,93.5C 565.603,86.464 568.103,84.7973 574,88.5C 575.313,92.2051 574.146,94.5385 570.5,95.5 Z"
       id="path10" />
  </g>
  <g
     id="g11">
    <path
       style="opacity:1"
       fill="#f1f3f0"
       d="M 210.5,95.5 C 210.011,96.9952 209.345,98.3285 208.5,99.5C 207.5,99.5 206.5,99.5 205.5,99.5C 204.446,94.4179 205.946,90.4179 210,87.5C 210.497,90.146 210.664,92.8127 210.5,95.5 Z"
       id="path11" />
  </g>
  <g
     id="g12">
    <path
       style="opacity:1"
       fill="#d9ebe3"
       d="M 236.5,92.5 C 240.048,92.0949 243.381,92.5949 246.5,94C 242.691,95.5882 238.691,95.9216 234.5,95C 235.381,94.2917 236.047,93.4584 236.5,92.5 Z"
       id="path12" />
  </g>
  <g
     id="g13">
    <path
       style="opacity:1"
       fill="#bfceb2"
       d="M 210.5,95.5 C 210.664,92.8127 210.497,90.146 210,87.5C 205.946,90.4179 204.446,94.4179 205.5,99.5C 206.5,99.5 207.5,99.5 208.5,99.5C 207.432,100.434 206.099,100.768 204.5,100.5C 202.341,94.9362 203.341,90.1028 207.5,86C 208.793,85.51 210.127,85.3433 211.5,85.5C 211.813,89.0419 211.479,92.3752 210.5,95.5 Z"
       id="path13" />
  </g>
  <g
     id="g14">
    <path
       style="opacity:1"
       fill="#2d95ad"
       d="M 404.5,95.5 C 408.407,95.442 410.741,97.2753 411.5,101C 410.167,112.667 410.167,124.333 411.5,136C 409.656,142.83 406.156,143.996 401,139.5C 399.75,134.58 399.25,129.58 399.5,124.5C 393.512,125.494 387.512,126.494 381.5,127.5C 381.772,131.902 381.439,136.235 380.5,140.5C 376.498,143.6 373.331,142.933 371,138.5C 371.187,125.521 371.52,112.521 372,99.5C 374.661,96.0339 377.661,95.7006 381,98.5C 381.333,104.833 381.667,111.167 382,117.5C 387.697,115.688 393.53,114.355 399.5,113.5C 398.99,107.928 399.823,102.595 402,97.5C 402.995,96.9341 403.828,96.2674 404.5,95.5 Z"
       id="path14" />
  </g>
  <g
     id="g15">
    <path
       style="opacity:1"
       fill="#517d2c"
       d="M 638.5,131.5 C 639.96,133.463 641.627,135.296 643.5,137C 644.483,137.591 645.15,137.257 645.5,136C 641.198,126.815 641.532,117.982 646.5,109.5C 651.53,107.864 656.197,108.697 660.5,112C 671.886,122.611 678.053,135.777 679,151.5C 681.049,146.785 684.382,143.451 689,141.5C 692.56,142.722 695.227,145.055 697,148.5C 699.502,156.485 698.835,164.152 695,171.5C 692.133,175.362 688.966,178.862 685.5,182C 747.745,264.42 771.245,357.254 756,460.5C 744.324,524.496 718.157,581.496 677.5,631.5C 678,631.833 678.5,632.167 679,632.5C 689.108,627.96 698.775,628.627 708,634.5C 709.157,640.351 706.991,644.518 701.5,647C 687.611,652.345 673.277,654.012 658.5,652C 656.316,654.016 654.316,656.183 652.5,658.5C 656.842,659.297 661.176,660.13 665.5,661C 672.296,664.422 674.129,669.589 671,676.5C 663.183,683.657 654.016,686.157 643.5,684C 639.63,682.713 635.964,681.047 632.5,679C 629.668,678.961 627.335,680.127 625.5,682.5C 628.167,684.167 630.833,685.833 633.5,687.5C 634.942,690.787 634.275,693.62 631.5,696C 628.592,696.993 625.592,697.493 622.5,697.5C 617.719,696.921 613.052,696.088 608.5,695C 513.596,759.119 410.596,776.119 299.5,746C 291.48,743.294 283.48,740.627 275.5,738C 268.732,734.627 261.732,731.627 254.5,729C 251.171,724.449 252.171,721.615 257.5,720.5C 313.975,745.821 373.309,755.654 435.5,750C 497.927,743.837 554.26,722.337 604.5,685.5C 602.862,680.259 602.362,674.925 603,669.5C 604.122,667.376 605.622,665.543 607.5,664C 616.588,662.421 620.421,666.254 619,675.5C 620.635,674.274 622.135,672.941 623.5,671.5C 619.668,666.179 618.001,660.179 618.5,653.5C 617.615,644.105 620.948,636.605 628.5,631C 635.592,628.132 641.092,629.966 645,636.5C 645.359,641.859 645.359,647.193 645,652.5C 652.365,645.47 659.365,638.136 666,630.5C 666.667,629.167 666.667,627.833 666,626.5C 662.846,623.348 660.513,619.681 659,615.5C 656.405,603.597 660.905,598.93 672.5,601.5C 671.978,591.953 673.811,582.953 678,574.5C 683.333,567.833 688.667,567.833 694,574.5C 695.232,579.721 695.899,585.054 696,590.5C 726.662,541.414 744.662,487.747 750,429.5C 755.718,351.577 737.885,279.91 696.5,214.5C 694.752,219.081 691.752,222.581 687.5,225C 682.043,228.351 676.876,228.185 672,224.5C 670.91,218.889 672.744,214.389 677.5,211C 667.223,212.259 658.39,209.426 651,202.5C 646.338,196.685 646.505,191.185 651.5,186C 661.312,184.578 670.479,186.411 679,191.5C 679.5,191.333 680,191.167 680.5,191C 652.791,155.173 619.791,125.34 581.5,101.5C 580.873,98.1359 582.206,96.1359 585.5,95.5C 594.863,100.029 603.863,105.196 612.5,111C 621.015,118.083 629.682,124.916 638.5,131.5 Z"
       id="path15" />
  </g>
  <g
     id="g16">
    <path
       style="opacity:1"
       fill="#2e96ad"
       d="M 419.5,98.5 C 427.993,97.4707 430.327,100.637 426.5,108C 419.691,110.196 416.857,107.696 418,100.5C 418.717,99.9558 419.217,99.2891 419.5,98.5 Z"
       id="path16" />
  </g>
  <g
     id="g17">
    <path
       style="opacity:1"
       fill="#2f96ae"
       d="M 468.5,103.5 C 473.453,102.959 476.119,105.126 476.5,110C 475.975,113.541 475.308,117.041 474.5,120.5C 484.418,120.247 488.918,124.914 488,134.5C 486.818,141.247 485.318,147.913 483.5,154.5C 480.701,156.818 478.034,156.485 475.5,153.5C 474.377,146.021 475.044,138.688 477.5,131.5C 474.685,132.126 472.185,133.46 470,135.5C 468.688,139.949 466.854,144.116 464.5,148C 459.749,150.725 456.749,149.391 455.5,144C 459.635,131.644 463.135,119.144 466,106.5C 467.045,105.627 467.878,104.627 468.5,103.5 Z"
       id="path17" />
  </g>
  <g
     id="g18">
    <path
       style="opacity:1"
       fill="#dff0eb"
       d="M 212.5,107.5 C 217.97,107.246 223.304,107.913 228.5,109.5C 228.67,110.822 228.337,111.989 227.5,113C 220.907,115.808 215.24,114.641 210.5,109.5C 211.243,108.818 211.909,108.151 212.5,107.5 Z"
       id="path18" />
  </g>
  <g
     id="g19">
    <path
       style="opacity:1"
       fill="#2d95ad"
       d="M 418.5,110.5 C 424.027,109.196 426.693,111.362 426.5,117C 425.859,124.191 425.026,131.357 424,138.5C 421.692,142.662 418.692,143.328 415,140.5C 414.077,138.966 413.577,137.299 413.5,135.5C 414.141,129.329 414.808,123.162 415.5,117C 415.84,114.489 416.84,112.322 418.5,110.5 Z"
       id="path19" />
  </g>
  <g
     id="g20">
    <path
       style="opacity:1"
       fill="#d9e2d3"
       d="M 181.5,100.5 C 182.822,100.33 183.989,100.663 185,101.5C 187.221,109.429 185.054,115.763 178.5,120.5C 176.418,113.189 177.418,106.522 181.5,100.5 Z"
       id="path20" />
  </g>
  <g
     id="g21">
    <path
       style="opacity:1"
       fill="#2d95ad"
       d="M 442.5,113.5 C 448.615,113.813 453.782,116.146 458,120.5C 457.285,132.737 454.285,144.404 449,155.5C 441.112,160.558 432.945,160.724 424.5,156C 421.626,152.949 421.959,150.282 425.5,148C 429.39,147.759 433.223,148.259 437,149.5C 439.37,149.4 441.203,148.4 442.5,146.5C 429.432,146.049 424.265,139.382 427,126.5C 429.772,119.212 434.939,114.878 442.5,113.5 Z"
       id="path21" />
  </g>
  <g
     id="g22">
    <path
       style="opacity:1"
       fill="#ecefe9"
       d="M 671.5,142.5 C 671.774,148.539 672.441,154.539 673.5,160.5C 673.493,162.369 673.16,164.036 672.5,165.5C 658.849,153.703 650.516,138.87 647.5,121C 646.773,117.451 648.106,115.284 651.5,114.5C 660.879,118.541 667.046,125.541 670,135.5C 670.977,137.74 671.477,140.073 671.5,142.5 Z"
       id="path22" />
  </g>
  <g
     id="g23">
    <path
       style="opacity:1"
       fill="#e9f9fd"
       d="M 442.5,123.5 C 446.138,122.737 447.638,124.07 447,127.5C 446.19,133.147 443.023,136.147 437.5,136.5C 436.314,133.488 436.48,130.488 438,127.5C 438.907,125.391 440.407,124.058 442.5,123.5 Z"
       id="path23" />
  </g>
  <g
     id="g24">
    <path
       style="opacity:1"
       fill="#e5ebe1"
       d="M 155.5,120.5 C 156.496,120.414 157.329,120.748 158,121.5C 159.401,130.797 156.734,138.797 150,145.5C 149.055,145.095 148.388,144.428 148,143.5C 145.82,134.208 148.32,126.541 155.5,120.5 Z"
       id="path24" />
  </g>
  <g
     id="g25">
    <path
       style="opacity:1"
       fill="#2e96ad"
       d="M 326.5,117.5 C 332.084,116.525 336.917,117.858 341,121.5C 340.364,128.612 342.364,134.946 347,140.5C 347.687,142.92 347.187,145.087 345.5,147C 342.833,147.333 340.167,147.667 337.5,148C 332.498,150.492 327.164,151.159 321.5,150C 318.567,147.736 316.4,144.902 315,141.5C 316.136,146.933 317.303,152.433 318.5,158C 318.371,162.925 316.371,166.925 312.5,170C 306.784,173.481 300.784,174.481 294.5,173C 293.231,170.861 293.231,168.695 294.5,166.5C 298.451,164.834 302.451,163.167 306.5,161.5C 307.849,157.68 306.849,156.846 303.5,159C 297.306,160.711 292.14,159.211 288,154.5C 286.679,167.903 279.512,173.069 266.5,170C 259.222,165.097 256.389,158.264 258,149.5C 260.821,140.218 266.988,136.718 276.5,139C 279.295,140.793 281.795,142.96 284,145.5C 285.865,130.153 294.365,123.986 309.5,127C 311.038,128.932 312.205,131.099 313,133.5C 314.808,125.861 319.308,120.528 326.5,117.5 Z"
       id="path25" />
  </g>
  <g
     id="g26">
    <path
       style="opacity:1"
       fill="#e3f3f1"
       d="M 188.5,125.5 C 193.998,125.068 199.331,125.735 204.5,127.5C 205.83,129.347 205.497,130.847 203.5,132C 198.5,132.667 193.5,132.667 188.5,132C 186.382,131.74 184.716,130.74 183.5,129C 185.233,127.811 186.9,126.644 188.5,125.5 Z"
       id="path26" />
  </g>
  <g
     id="g27">
    <path
       style="opacity:1"
       fill="#e6f8fb"
       d="M 327.5,127.5 C 328.5,127.5 329.5,127.5 330.5,127.5C 330.767,131.531 331.767,135.364 333.5,139C 328.395,142.941 325.395,141.607 324.5,135C 324.978,132.22 325.978,129.72 327.5,127.5 Z"
       id="path27" />
  </g>
  <g
     id="g28">
    <path
       style="opacity:1"
       fill="#cdd8c3"
       d="M 646.5,109.5 C 641.532,117.982 641.198,126.815 645.5,136C 645.15,137.257 644.483,137.591 643.5,137C 641.627,135.296 639.96,133.463 638.5,131.5C 640.218,124.493 641.552,117.159 642.5,109.5C 643.833,109.5 645.167,109.5 646.5,109.5 Z"
       id="path28" />
  </g>
  <g
     id="g29">
    <path
       style="opacity:1"
       fill="#2e96ad"
       d="M 530.5,133.5 C 541.74,132.116 549.74,136.449 554.5,146.5C 553.348,148.825 551.515,150.158 549,150.5C 544.948,148.796 541.115,146.629 537.5,144C 534.947,143.149 532.614,143.482 530.5,145C 535.136,147.987 539.636,151.154 544,154.5C 546.448,158.319 547.615,162.319 547.5,166.5C 555.052,160.372 562.718,160.039 570.5,165.5C 574.369,168.925 575.203,172.925 573,177.5C 571.274,178.576 569.441,178.743 567.5,178C 562.151,169.55 556.818,169.717 551.5,178.5C 552,179.5 552.5,180.5 553,181.5C 555.966,183.034 559.133,184.2 562.5,185C 565.753,189.484 564.753,192.65 559.5,194.5C 546.767,192.955 540.934,185.955 542,173.5C 536.521,176.99 530.687,177.49 524.5,175C 517.353,172.86 511.853,168.694 508,162.5C 506.072,156.912 507.905,153.578 513.5,152.5C 517.679,152.857 519.513,155.19 519,159.5C 519.645,160.646 520.478,161.646 521.5,162.5C 525.991,164.217 530.657,164.883 535.5,164.5C 535.059,159.742 532.392,156.909 527.5,156C 515.981,146.465 516.981,138.965 530.5,133.5 Z"
       id="path29" />
  </g>
  <g
     id="g30">
    <path
       style="opacity:1"
       fill="#eafafd"
       d="M 299.5,135.5 C 300.5,135.5 301.5,135.5 302.5,135.5C 303.754,139.911 303.587,144.244 302,148.5C 300.333,149.833 298.667,149.833 297,148.5C 294.35,143.266 295.183,138.933 299.5,135.5 Z"
       id="path30" />
  </g>
  <g
     id="g31">
    <path
       style="opacity:1"
       fill="#2f96ad"
       d="M 234.5,145.5 C 238.338,145.779 241.504,147.446 244,150.5C 246.971,148.433 250.138,148.1 253.5,149.5C 255.706,154.324 254.372,157.658 249.5,159.5C 252.468,164.964 255.634,170.297 259,175.5C 259.735,182.289 256.901,184.456 250.5,182C 247,176.5 243.5,171 240,165.5C 237.912,166.308 235.912,167.308 234,168.5C 231.667,167.5 230,165.833 229,163.5C 229.151,160.316 230.651,157.816 233.5,156C 230.529,152.09 230.862,148.59 234.5,145.5 Z"
       id="path31" />
  </g>
  <g
     id="g32">
    <path
       style="opacity:1"
       fill="#e2f3ef"
       d="M 168.5,147.5 C 174.348,146.962 179.681,148.295 184.5,151.5C 178.267,157.353 170.934,159.353 162.5,157.5C 159.813,157.159 157.813,155.826 156.5,153.5C 160.313,150.927 164.313,148.927 168.5,147.5 Z"
       id="path32" />
  </g>
  <g
     id="g33">
    <path
       style="opacity:1"
       fill="#e9f9fd"
       d="M 269.5,149.5 C 274.045,149.519 276.711,151.853 277.5,156.5C 276.181,160.399 273.681,161.399 270,159.5C 268.384,156.176 268.217,152.843 269.5,149.5 Z"
       id="path33" />
  </g>
  <g
     id="g34">
    <path
       style="opacity:1"
       fill="#acc09b"
       d="M 671.5,142.5 C 674.205,150.513 675.039,158.846 674,167.5C 673.283,166.956 672.783,166.289 672.5,165.5C 673.16,164.036 673.493,162.369 673.5,160.5C 672.441,154.539 671.774,148.539 671.5,142.5 Z"
       id="path34" />
  </g>
  <g
     id="g35">
    <path
       style="opacity:1"
       fill="#e4eae0"
       d="M 687.5,148.5 C 690.05,148.561 691.55,149.894 692,152.5C 694.168,161.838 691.335,169.171 683.5,174.5C 681.357,165.243 682.69,156.576 687.5,148.5 Z"
       id="path35" />
  </g>
  <g
     id="g36">
    <path
       style="opacity:1"
       fill="#2d95ad"
       d="M 591.5,164.5 C 597.751,165.714 599.417,169.047 596.5,174.5C 594.35,177.151 592.017,179.651 589.5,182C 599.492,185.45 601.992,191.617 597,200.5C 593.176,204.814 589.843,209.481 587,214.5C 579.563,217.945 576.563,215.611 578,207.5C 580.954,202.385 584.454,197.718 588.5,193.5C 586.235,192.353 583.902,192.186 581.5,193C 577.311,196.69 572.978,200.19 568.5,203.5C 563.923,202.079 562.423,199.079 564,194.5C 573.089,184.252 582.256,174.252 591.5,164.5 Z"
       id="path36" />
  </g>
  <g
     id="g37">
    <path
       style="opacity:1"
       fill="#2e96ad"
       d="M 222.5,167.5 C 224.92,167.292 227.253,167.626 229.5,168.5C 233.302,175.458 238.469,181.124 245,185.5C 245.295,190.703 242.795,193.037 237.5,192.5C 237.256,195.263 235.923,197.429 233.5,199C 222.385,204.709 214.552,201.543 210,189.5C 208.306,178.69 212.472,171.357 222.5,167.5 Z"
       id="path37" />
  </g>
  <g
     id="g38">
    <path
       style="opacity:1"
       fill="#e9f9fd"
       d="M 221.5,178.5 C 224.764,181.097 227.764,184.097 230.5,187.5C 227.334,192.723 224.167,192.723 221,187.5C 220.366,184.445 220.532,181.445 221.5,178.5 Z"
       id="path38" />
  </g>
  <g
     id="g39">
    <path
       style="opacity:1"
       fill="#2e95ad"
       d="M 171.5,236.5 C 163.305,223.007 166.472,213.007 181,206.5C 185.121,209.618 188.954,213.118 192.5,217C 194.447,217.991 196.447,218.325 198.5,218C 194.333,213.833 190.167,209.667 186,205.5C 183.076,200.136 184.576,196.636 190.5,195C 192.041,191.45 194.374,188.45 197.5,186C 204.167,184.667 208.167,187.334 209.5,194C 208.403,199.466 205.57,200.633 201,197.5C 199.482,199.614 199.149,201.947 200,204.5C 204.24,208.335 207.74,212.668 210.5,217.5C 209.399,221.591 206.733,223.258 202.5,222.5C 202.956,226.119 201.456,228.452 198,229.5C 192.061,242.735 183.228,245.068 171.5,236.5 Z"
       id="path39" />
  </g>
  <g
     id="g40">
    <path
       style="opacity:1"
       fill="#030303"
       d="M 486.5,584.5 C 483.195,580.859 479.862,577.192 476.5,573.5C 480.483,568.717 485.483,565.383 491.5,563.5C 495.833,559.833 499.833,555.833 503.5,551.5C 506.622,550.439 509.622,549.105 512.5,547.5C 519.586,541.915 525.419,535.248 530,527.5C 532.306,517.575 534.139,507.575 535.5,497.5C 535.557,496.391 535.89,495.391 536.5,494.5C 537.529,490.376 538.863,486.376 540.5,482.5C 543.424,471.38 545.09,460.047 545.5,448.5C 544.395,432.434 542.728,416.434 540.5,400.5C 538.647,389.86 536.98,379.193 535.5,368.5C 536.791,368.737 537.791,368.404 538.5,367.5C 546.229,366.033 553.896,364.366 561.5,362.5C 561.657,361.127 561.49,359.793 561,358.5C 556.833,355.181 553.667,351.181 551.5,346.5C 551.5,335.833 551.5,325.167 551.5,314.5C 551.5,309.167 551.5,303.833 551.5,298.5C 551.5,294.833 551.5,291.167 551.5,287.5C 549.691,280.531 547.857,273.531 546,266.5C 544.669,264.004 542.836,262.004 540.5,260.5C 538.738,256.638 536.738,252.972 534.5,249.5C 533.258,245.345 531.258,241.678 528.5,238.5C 526.067,234.232 522.734,230.732 518.5,228C 503.391,223.277 488.391,218.277 473.5,213C 470.5,212.333 467.5,212.333 464.5,213C 457.417,216.212 450.417,219.379 443.5,222.5C 441.769,218.705 439.769,215.038 437.5,211.5C 436.188,209.521 434.521,207.855 432.5,206.5C 426.091,208.697 420.757,212.363 416.5,217.5C 412.12,220.714 408.62,224.714 406,229.5C 402.771,242.401 407.604,249.734 420.5,251.5C 413.955,263.763 403.622,268.93 389.5,267C 389.043,267.414 388.709,267.914 388.5,268.5C 393.847,275.177 399.514,281.51 405.5,287.5C 409.44,294.613 413.607,301.613 418,308.5C 424.708,315.705 431.208,323.038 437.5,330.5C 437.5,343.167 437.5,355.833 437.5,368.5C 434.043,378.083 429.043,386.75 422.5,394.5C 413.152,396.845 403.818,399.178 394.5,401.5C 395.127,408.136 396.461,414.636 398.5,421C 397.319,425.381 395.652,429.548 393.5,433.5C 384.187,435.661 374.854,437.828 365.5,440C 361.965,440.663 358.965,442.163 356.5,444.5C 350.099,445.368 344.432,447.868 339.5,452C 331.702,457.631 324.702,464.131 318.5,471.5C 309.564,470.302 301.564,466.969 294.5,461.5C 294.013,460.527 293.513,459.527 293,458.5C 282,447.833 271,437.167 260,426.5C 256.997,419.831 252.831,413.998 247.5,409C 245.866,408.506 244.199,408.34 242.5,408.5C 242.334,413.179 242.501,417.845 243,422.5C 248.53,436.756 253.863,451.089 259,465.5C 264.259,475.026 269.759,484.359 275.5,493.5C 283.182,505.84 292.516,516.84 303.5,526.5C 310.167,533.833 317.167,540.833 324.5,547.5C 331.216,552.881 338.216,557.881 345.5,562.5C 352.76,565.085 360.093,567.418 367.5,569.5C 368.991,574.463 370.324,579.463 371.5,584.5C 355.057,583.306 339.39,579.139 324.5,572C 321.688,570.023 319.022,567.856 316.5,565.5C 310.186,557.718 303.519,550.218 296.5,543C 288.735,537.239 281.569,530.739 275,523.5C 268,513.167 261,502.833 254,492.5C 245.567,474.964 238.234,456.964 232,438.5C 230.39,424.51 228.89,410.51 227.5,396.5C 227.362,393.117 228.362,390.283 230.5,388C 234.878,384.75 239.544,384.083 244.5,386C 257.754,398.918 269.921,412.752 281,427.5C 287.569,434.739 294.735,441.239 302.5,447C 307.314,449.893 312.314,450.226 317.5,448C 326.82,444.011 335.487,439.011 343.5,433C 354.952,429.607 365.618,424.607 375.5,418C 377.373,415.887 378.373,413.387 378.5,410.5C 377.85,405.851 377.35,401.184 377,396.5C 371.049,389.542 364.215,383.709 356.5,379C 349.333,371.833 342.167,364.667 335,357.5C 328.909,346.984 323.075,336.318 317.5,325.5C 313.4,326.716 309.4,328.216 305.5,330C 294.783,330.875 284.116,330.541 273.5,329C 267.665,325.336 264.665,320.002 264.5,313C 264.995,307.852 266.495,303.018 269,298.5C 269.667,296.833 269.667,295.167 269,293.5C 252.892,284.725 240.892,272.059 233,255.5C 232.333,252.833 232.333,250.167 233,247.5C 234.546,242.886 235.879,238.219 237,233.5C 242.582,226.195 248.748,219.361 255.5,213C 261.492,208.556 268.159,206.556 275.5,207C 285.251,213.748 294.084,221.581 302,230.5C 305.594,237.575 310.094,243.909 315.5,249.5C 316.442,249.392 317.275,249.059 318,248.5C 319.185,240.281 321.185,232.281 324,224.5C 328.227,215.945 335.061,210.779 344.5,209C 350.109,207.616 355.775,207.283 361.5,208C 368.71,212.862 373.044,219.529 374.5,228C 370.815,247.554 364.815,266.388 356.5,284.5C 356.608,285.442 356.941,286.275 357.5,287C 359.5,287.667 361.5,287.667 363.5,287C 368.167,284.667 372.833,282.333 377.5,280C 374.601,278.373 373.101,275.873 373,272.5C 372.175,268.789 372.341,265.122 373.5,261.5C 378.13,257.702 382.297,253.368 386,248.5C 389.537,240.562 391.537,232.229 392,223.5C 393.413,220.339 395.08,217.339 397,214.5C 406.217,206.949 415.717,199.782 425.5,193C 431.626,190.075 437.959,189.741 444.5,192C 448.733,196.233 452.9,200.4 457,204.5C 462.174,201.607 467.84,200.274 474,200.5C 494.245,204.138 513.411,210.972 531.5,221C 540.231,227.057 546.731,234.89 551,244.5C 553.531,251.091 555.864,257.758 558,264.5C 561.407,291.499 564.741,318.499 568,345.5C 569.337,349.498 571.67,352.832 575,355.5C 578.333,360.167 578.333,364.833 575,369.5C 573.188,372.28 571.021,374.78 568.5,377C 564.284,378.204 559.951,378.87 555.5,379C 553.714,379.785 552.214,380.951 551,382.5C 550.333,385.5 550.333,388.5 551,391.5C 554.648,416.337 558.148,441.171 561.5,466C 560.111,488.612 555.278,510.445 547,531.5C 545.503,535.165 543.503,538.498 541,541.5C 532.247,550.196 524.08,559.363 516.5,569C 506.348,573.909 496.348,579.076 486.5,584.5 Z"
       id="path40" />
  </g>
  <g
     id="g41">
    <path
       style="opacity:1"
       fill="#e7f6f6"
       d="M 653.5,190.5 C 659.38,190.048 665.047,190.882 670.5,193C 676.532,196.348 682.532,199.681 688.5,203C 679.911,204.576 671.244,204.91 662.5,204C 655.837,201.572 652.837,197.072 653.5,190.5 Z"
       id="path41" />
  </g>
  <g
     id="g42">
    <path
       style="opacity:1"
       fill="#2d95ad"
       d="M 604.5,201.5 C 619.95,204.232 623.95,212.399 616.5,226C 625.981,222.494 633.481,224.994 639,233.5C 639.854,237.625 639.52,241.625 638,245.5C 633.916,251.287 628.416,254.62 621.5,255.5C 615.267,255.1 610.767,252.1 608,246.5C 606.964,241.574 607.464,236.907 609.5,232.5C 609.167,232.167 608.833,231.833 608.5,231.5C 599.775,234.561 593.275,231.895 589,223.5C 586.963,215.919 589.13,209.919 595.5,205.5C 598.592,204.145 601.592,202.812 604.5,201.5 Z"
       id="path42" />
  </g>
  <g
     id="g43">
    <path
       style="opacity:1"
       fill="#c2bbab"
       d="M 437.5,211.5 C 432.021,217.268 426.021,222.602 419.5,227.5C 417.909,224.325 416.909,220.991 416.5,217.5C 420.757,212.363 426.091,208.697 432.5,206.5C 434.521,207.855 436.188,209.521 437.5,211.5 Z"
       id="path43" />
  </g>
  <g
     id="g44">
    <path
       style="opacity:1"
       fill="#787d86"
       d="M 437.5,211.5 C 439.769,215.038 441.769,218.705 443.5,222.5C 436.183,232.479 428.517,242.146 420.5,251.5C 407.604,249.734 402.771,242.401 406,229.5C 408.62,224.714 412.12,220.714 416.5,217.5C 416.909,220.991 417.909,224.325 419.5,227.5C 426.021,222.602 432.021,217.268 437.5,211.5 Z"
       id="path44" />
  </g>
  <g
     id="g45">
    <path
       style="opacity:1"
       fill="#fea13f"
       d="M 528.5,238.5 C 526.692,238.491 525.025,238.991 523.5,240C 520.318,243.349 516.985,246.516 513.5,249.5C 520.507,256.082 527.507,256.082 534.5,249.5C 536.738,252.972 538.738,256.638 540.5,260.5C 536.5,263.833 532.833,267.5 529.5,271.5C 518.763,272.843 508.096,274.676 497.5,277C 493.445,279.589 492.112,283.089 493.5,287.5C 497.603,289.885 501.936,291.718 506.5,293C 507.833,294.667 507.833,296.333 506.5,298C 494.094,299.186 481.76,300.852 469.5,303C 464.167,303.667 458.833,303.667 453.5,303C 445.924,298.759 439.59,293.092 434.5,286C 429.501,283.109 424.167,282.109 418.5,283C 414.117,284.405 409.783,285.905 405.5,287.5C 399.514,281.51 393.847,275.177 388.5,268.5C 388.709,267.914 389.043,267.414 389.5,267C 403.622,268.93 413.955,263.763 420.5,251.5C 428.517,242.146 436.183,232.479 443.5,222.5C 450.417,219.379 457.417,216.212 464.5,213C 467.5,212.333 470.5,212.333 473.5,213C 488.391,218.277 503.391,223.277 518.5,228C 522.734,230.732 526.067,234.232 528.5,238.5 Z"
       id="path45" />
  </g>
  <g
     id="g46">
    <path
       style="opacity:1"
       fill="#e7f8fc"
       d="M 605.5,212.5 C 608.042,212.706 609.709,214.039 610.5,216.5C 608.95,218.428 607.283,220.261 605.5,222C 600.296,223.292 598.296,221.459 599.5,216.5C 601.29,214.684 603.29,213.351 605.5,212.5 Z"
       id="path46" />
  </g>
  <g
     id="g47">
    <path
       style="opacity:1"
       fill="#deefe9"
       d="M 689.5,209.5 C 690.552,209.351 691.552,209.517 692.5,210C 690.211,217.465 685.211,221.298 677.5,221.5C 677.351,220.448 677.517,219.448 678,218.5C 681.449,214.877 685.283,211.877 689.5,209.5 Z"
       id="path47" />
  </g>
  <g
     id="g48">
    <path
       style="opacity:1"
       fill="#e8f9fc"
       d="M 178.5,219.5 C 182.31,221.252 185.643,223.752 188.5,227C 185.709,232.811 182.542,232.978 179,227.5C 177.304,224.881 177.137,222.214 178.5,219.5 Z"
       id="path48" />
  </g>
  <g
     id="g49">
    <path
       style="opacity:1"
       fill="#678afb"
       d="M 291.5,249.5 C 286.139,246.153 280.472,243.319 274.5,241C 270.903,239.723 267.236,239.39 263.5,240C 262.667,240.833 261.833,241.667 261,242.5C 259.11,248.015 258.276,253.681 258.5,259.5C 245.586,249.289 245.252,238.456 257.5,227C 263.918,222.785 270.918,221.452 278.5,223C 280.286,223.785 281.786,224.951 283,226.5C 286.9,233.761 289.733,241.428 291.5,249.5 Z"
       id="path49" />
  </g>
  <g
     id="g50">
    <path
       style="opacity:1"
       fill="#2f96ad"
       d="M 171.5,236.5 C 173.534,238.939 175.701,241.272 178,243.5C 179.416,254.253 176.249,263.42 168.5,271C 164.204,274.494 159.537,275.161 154.5,273C 152.464,270.701 152.131,268.201 153.5,265.5C 156.338,263.367 159.505,262.034 163,261.5C 166.264,257.402 167.764,252.735 167.5,247.5C 162.552,247.267 159.385,249.601 158,254.5C 145.925,265.667 138.425,263 135.5,246.5C 136.529,237.426 141.196,231.093 149.5,227.5C 153.989,227.833 155.489,230.167 154,234.5C 151.667,237.5 149.333,240.5 147,243.5C 146.192,245.579 146.359,247.579 147.5,249.5C 150.957,245.542 154.623,241.708 158.5,238C 162.614,235.385 166.947,234.885 171.5,236.5 Z"
       id="path50" />
  </g>
  <g
     id="g51">
    <path
       style="opacity:1"
       fill="#6688f7"
       d="M 353.5,244.5 C 347.167,244.5 340.833,244.5 334.5,244.5C 338.956,238.873 343.623,233.373 348.5,228C 351.167,227.333 353.833,227.333 356.5,228C 357.894,228.956 358.561,230.289 358.5,232C 357.504,236.535 355.837,240.702 353.5,244.5 Z"
       id="path51" />
  </g>
  <g
     id="g52">
    <path
       style="opacity:1"
       fill="#e8f9fc"
       d="M 622.5,235.5 C 628.317,235.03 629.984,237.196 627.5,242C 625.086,243.885 622.419,244.552 619.5,244C 618.196,243.196 617.529,242.029 617.5,240.5C 618.577,238.132 620.244,236.465 622.5,235.5 Z"
       id="path52" />
  </g>
  <g
     id="g53">
    <path
       style="opacity:1"
       fill="#8ea8fd"
       d="M 291.5,249.5 C 297.586,257.997 302.919,266.997 307.5,276.5C 299.251,277.142 291.584,279.476 284.5,283.5C 273.78,277.793 265.113,269.793 258.5,259.5C 258.276,253.681 259.11,248.015 261,242.5C 261.833,241.667 262.667,240.833 263.5,240C 267.236,239.39 270.903,239.723 274.5,241C 280.472,243.319 286.139,246.153 291.5,249.5 Z"
       id="path53" />
  </g>
  <g
     id="g54">
    <path
       style="opacity:1"
       fill="#c7bdab"
       d="M 528.5,238.5 C 531.258,241.678 533.258,245.345 534.5,249.5C 527.507,256.082 520.507,256.082 513.5,249.5C 516.985,246.516 520.318,243.349 523.5,240C 525.025,238.991 526.692,238.491 528.5,238.5 Z"
       id="path54" />
  </g>
  <g
     id="g55">
    <path
       style="opacity:1"
       fill="#2f96ad"
       d="M 656.5,238.5 C 664.504,240.33 665.504,244.164 659.5,250C 648.99,256.086 638.657,262.419 628.5,269C 623.178,269.34 621.011,266.84 622,261.5C 623.167,260.333 624.333,259.167 625.5,258C 636.287,251.955 646.62,245.455 656.5,238.5 Z"
       id="path55" />
  </g>
  <g
     id="g56">
    <path
       style="opacity:1"
       fill="#8da7fb"
       d="M 334.5,244.5 C 340.833,244.5 347.167,244.5 353.5,244.5C 352.298,248.578 350.798,252.578 349,256.5C 344.424,265.319 339.591,273.985 334.5,282.5C 332.5,282.5 330.5,282.5 328.5,282.5C 327.402,276.975 325.735,271.642 323.5,266.5C 329.06,260.178 332.727,252.844 334.5,244.5 Z"
       id="path56" />
  </g>
  <g
     id="g57">
    <path
       style="opacity:1"
       fill="#99968d"
       d="M 540.5,260.5 C 542.836,262.004 544.669,264.004 546,266.5C 547.857,273.531 549.691,280.531 551.5,287.5C 547.702,290.796 544.036,294.296 540.5,298C 544.152,298.499 547.818,298.665 551.5,298.5C 551.5,303.833 551.5,309.167 551.5,314.5C 548.851,316.14 546.184,317.807 543.5,319.5C 541.079,315.66 538.912,311.66 537,307.5C 536.223,305.785 534.89,304.785 533,304.5C 528.506,305.914 524.006,307.248 519.5,308.5C 522.63,300.895 525.797,293.229 529,285.5C 529.499,280.845 529.666,276.179 529.5,271.5C 532.833,267.5 536.5,263.833 540.5,260.5 Z"
       id="path57" />
  </g>
  <g
     id="g58">
    <path
       style="opacity:1"
       fill="#5b4e4a"
       d="M 323.5,266.5 C 325.735,271.642 327.402,276.975 328.5,282.5C 327.312,285.883 325.645,289.049 323.5,292C 328.155,292.499 332.821,292.666 337.5,292.5C 333.018,293.326 328.351,293.826 323.5,294C 319.625,300.252 315.625,306.419 311.5,312.5C 310.707,312.931 309.873,313.265 309,313.5C 307.433,312.144 305.6,311.477 303.5,311.5C 306.969,302.927 309.969,294.094 312.5,285C 311.066,282.058 309.4,279.224 307.5,276.5C 312.861,273.156 318.195,269.822 323.5,266.5 Z"
       id="path58" />
  </g>
  <g
     id="g59">
    <path
       style="opacity:1"
       fill="#c7beac"
       d="M 529.5,271.5 C 529.666,276.179 529.499,280.845 529,285.5C 525.797,293.229 522.63,300.895 519.5,308.5C 518.29,308.932 517.29,309.599 516.5,310.5C 502.819,314.839 488.819,318.005 474.5,320C 467.335,325.668 460.335,331.501 453.5,337.5C 448.19,335.21 442.857,332.877 437.5,330.5C 431.208,323.038 424.708,315.705 418,308.5C 413.607,301.613 409.44,294.613 405.5,287.5C 409.783,285.905 414.117,284.405 418.5,283C 424.167,282.109 429.501,283.109 434.5,286C 439.59,293.092 445.924,298.759 453.5,303C 458.833,303.667 464.167,303.667 469.5,303C 481.76,300.852 494.094,299.186 506.5,298C 507.833,296.333 507.833,294.667 506.5,293C 501.936,291.718 497.603,289.885 493.5,287.5C 492.112,283.089 493.445,279.589 497.5,277C 508.096,274.676 518.763,272.843 529.5,271.5 Z"
       id="path59" />
  </g>
  <g
     id="g60">
    <path
       style="opacity:1"
       fill="#678afb"
       d="M 307.5,276.5 C 309.4,279.224 311.066,282.058 312.5,285C 309.969,294.094 306.969,302.927 303.5,311.5C 296.813,316.886 289.146,318.719 280.5,317C 275.784,315.506 274.284,312.339 276,307.5C 278.248,304.672 280.248,301.672 282,298.5C 285.512,296.321 288.346,293.488 290.5,290C 288.986,287.322 286.986,285.155 284.5,283.5C 291.584,279.476 299.251,277.142 307.5,276.5 Z"
       id="path60" />
  </g>
  <g
     id="g61">
    <path
       style="opacity:1"
       fill="#6789f8"
       d="M 328.5,282.5 C 330.5,282.5 332.5,282.5 334.5,282.5C 337.626,284.765 339.126,287.765 339,291.5C 338.617,292.056 338.117,292.389 337.5,292.5C 332.821,292.666 328.155,292.499 323.5,292C 325.645,289.049 327.312,285.883 328.5,282.5 Z"
       id="path61" />
  </g>
  <g
     id="g62">
    <path
       style="opacity:1"
       fill="#cf8145"
       d="M 551.5,287.5 C 551.5,291.167 551.5,294.833 551.5,298.5C 547.818,298.665 544.152,298.499 540.5,298C 544.036,294.296 547.702,290.796 551.5,287.5 Z"
       id="path62" />
  </g>
  <g
     id="g63">
    <path
       style="opacity:1"
       fill="#e5a995"
       d="M 371.5,342.5 C 370.71,343.609 370.21,344.942 370,346.5C 356.317,340.311 343.817,332.311 332.5,322.5C 330.245,320.241 329.245,317.408 329.5,314C 329.629,312.019 330.296,310.353 331.5,309C 343.868,306.158 356.201,303.158 368.5,300C 375.211,298.361 381.877,298.361 388.5,300C 384.424,307.227 380.924,314.727 378,322.5C 375.323,329.03 373.156,335.697 371.5,342.5 Z"
       id="path63" />
  </g>
  <g
     id="g64">
    <path
       style="opacity:1"
       fill="#d68242"
       d="M 551.5,314.5 C 551.5,325.167 551.5,335.833 551.5,346.5C 550.674,341.684 550.174,336.684 550,331.5C 545.584,335.462 543.751,340.462 544.5,346.5C 534.57,344.437 524.57,342.604 514.5,341C 510.332,338.75 506.332,336.25 502.5,333.5C 507.128,325.742 512.128,318.242 517.5,311C 517.272,310.601 516.938,310.435 516.5,310.5C 517.29,309.599 518.29,308.932 519.5,308.5C 524.006,307.248 528.506,305.914 533,304.5C 534.89,304.785 536.223,305.785 537,307.5C 538.912,311.66 541.079,315.66 543.5,319.5C 546.184,317.807 548.851,316.14 551.5,314.5 Z"
       id="path64" />
  </g>
  <g
     id="g65">
    <path
       style="opacity:1"
       fill="#fea13f"
       d="M 516.5,310.5 C 516.938,310.435 517.272,310.601 517.5,311C 512.128,318.242 507.128,325.742 502.5,333.5C 506.332,336.25 510.332,338.75 514.5,341C 524.57,342.604 534.57,344.437 544.5,346.5C 543.751,340.462 545.584,335.462 550,331.5C 550.174,336.684 550.674,341.684 551.5,346.5C 553.667,351.181 556.833,355.181 561,358.5C 561.49,359.793 561.657,361.127 561.5,362.5C 553.896,364.366 546.229,366.033 538.5,367.5C 521.323,363.525 503.99,360.192 486.5,357.5C 481.004,353.584 475.337,349.918 469.5,346.5C 464.167,343.5 458.833,340.5 453.5,337.5C 460.335,331.501 467.335,325.668 474.5,320C 488.819,318.005 502.819,314.839 516.5,310.5 Z"
       id="path65" />
  </g>
  <g
     id="g66">
    <path
       style="opacity:1"
       fill="#9ca2c4"
       d="M 421.5,357.5 C 417.268,355.592 413.101,353.592 409,351.5C 408.617,352.056 408.117,352.389 407.5,352.5C 407.931,346.977 407.264,341.644 405.5,336.5C 407.831,330.493 405.831,326.826 399.5,325.5C 402.386,323.154 405.72,322.32 409.5,323C 416.266,326.096 420.432,331.263 422,338.5C 422.444,344.845 422.277,351.178 421.5,357.5 Z"
       id="path66" />
  </g>
  <g
     id="g67">
    <path
       style="opacity:1"
       fill="#ab615b"
       d="M 332.5,322.5 C 343.817,332.311 356.317,340.311 370,346.5C 370.21,344.942 370.71,343.609 371.5,342.5C 370.486,349.409 368.653,356.076 366,362.5C 358.424,358.259 352.09,352.592 347,345.5C 343.715,340.546 340.048,335.88 336,331.5C 334.259,328.691 333.092,325.691 332.5,322.5 Z"
       id="path67" />
  </g>
  <g
     id="g68">
    <path
       style="opacity:1"
       fill="#f8e44b"
       d="M 399.5,325.5 C 405.831,326.826 407.831,330.493 405.5,336.5C 400.711,340.989 395.211,342.322 389,340.5C 387.184,331.812 390.684,326.812 399.5,325.5 Z"
       id="path68" />
  </g>
  <g
     id="g69">
    <path
       style="opacity:1"
       fill="#c19a59"
       d="M 437.5,330.5 C 442.857,332.877 448.19,335.21 453.5,337.5C 458.833,340.5 464.167,343.5 469.5,346.5C 466.037,350.464 462.37,354.298 458.5,358C 453.084,361.03 448.084,364.53 443.5,368.5C 441.5,368.5 439.5,368.5 437.5,368.5C 437.5,355.833 437.5,343.167 437.5,330.5 Z"
       id="path69" />
  </g>
  <g
     id="g70">
    <path
       style="opacity:1"
       fill="#717b65"
       d="M 469.5,346.5 C 475.337,349.918 481.004,353.584 486.5,357.5C 479.5,366.167 472.5,374.833 465.5,383.5C 463.143,383.663 460.81,383.497 458.5,383C 453.024,378.691 448.024,373.857 443.5,368.5C 448.084,364.53 453.084,361.03 458.5,358C 462.37,354.298 466.037,350.464 469.5,346.5 Z"
       id="path70" />
  </g>
  <g
     id="g71">
    <path
       style="opacity:1"
       fill="#f4f6f7"
       d="M 421.5,357.5 C 419.484,366.031 415.484,373.531 409.5,380C 403.21,383.281 396.543,384.281 389.5,383C 386.959,378.725 384.792,374.225 383,369.5C 382.333,364.5 382.333,359.5 383,354.5C 383.667,353.833 384.333,353.167 385,352.5C 386.026,357.785 386.693,363.118 387,368.5C 390.75,370.821 394.584,370.987 398.5,369C 404.536,365.09 407.536,359.59 407.5,352.5C 408.117,352.389 408.617,352.056 409,351.5C 413.101,353.592 417.268,355.592 421.5,357.5 Z"
       id="path71" />
  </g>
  <g
     id="g72">
    <path
       style="opacity:1"
       fill="#c39c59"
       d="M 486.5,357.5 C 503.99,360.192 521.323,363.525 538.5,367.5C 537.791,368.404 536.791,368.737 535.5,368.5C 536.98,379.193 538.647,389.86 540.5,400.5C 533.528,401.508 526.528,401.675 519.5,401C 501.512,395.392 483.512,389.892 465.5,384.5C 465.5,384.167 465.5,383.833 465.5,383.5C 472.5,374.833 479.5,366.167 486.5,357.5 Z"
       id="path72" />
  </g>
  <g
     id="g73">
    <path
       style="opacity:1"
       fill="#929577"
       d="M 437.5,368.5 C 439.5,368.5 441.5,368.5 443.5,368.5C 448.024,373.857 453.024,378.691 458.5,383C 460.81,383.497 463.143,383.663 465.5,383.5C 465.5,383.833 465.5,384.167 465.5,384.5C 462.813,384.336 460.146,384.503 457.5,385C 445.811,388.288 434.145,391.455 422.5,394.5C 429.043,386.75 434.043,378.083 437.5,368.5 Z"
       id="path73" />
  </g>
  <g
     id="g74">
    <path
       style="opacity:1"
       fill="#fee94c"
       d="M 465.5,384.5 C 483.512,389.892 501.512,395.392 519.5,401C 526.528,401.675 533.528,401.508 540.5,400.5C 542.728,416.434 544.395,432.434 545.5,448.5C 545.09,460.047 543.424,471.38 540.5,482.5C 538.833,482.5 537.167,482.5 535.5,482.5C 533.938,471.069 531.771,459.735 529,448.5C 526.694,446.112 523.861,445.112 520.5,445.5C 517.989,445.288 515.822,445.955 514,447.5C 515.889,468.783 517.389,490.116 518.5,511.5C 517.849,514.803 516.182,517.47 513.5,519.5C 497.654,528.056 481.987,536.889 466.5,546C 456.991,546.824 447.657,546.658 438.5,545.5C 438.664,538.798 438.331,532.131 437.5,525.5C 433.818,525.335 430.152,525.501 426.5,526C 423.661,527.92 420.661,529.587 417.5,531C 408.506,532.166 399.84,534.499 391.5,538C 388.629,540.703 385.962,543.536 383.5,546.5C 381.5,546.5 379.5,546.5 377.5,546.5C 376.375,544.871 375.041,543.371 373.5,542C 364.587,539.68 355.587,537.68 346.5,536C 340.764,531.936 334.764,528.27 328.5,525C 327.167,523.667 325.833,522.333 324.5,521C 325.094,520.536 325.761,520.369 326.5,520.5C 344.691,522.882 362.691,526.215 380.5,530.5C 381.98,527.241 382.98,523.908 383.5,520.5C 393.172,520.666 402.839,520.5 412.5,520C 415.29,519.439 417.623,518.106 419.5,516C 428.094,516.127 436.427,514.793 444.5,512C 446.333,510.167 448.167,508.333 450,506.5C 456.667,495.833 463.333,485.167 470,474.5C 470.439,470.789 470.106,467.122 469,463.5C 468.275,461.842 467.108,461.342 465.5,462C 463.408,467.684 460.908,473.184 458,478.5C 453.271,483.397 448.438,488.064 443.5,492.5C 441.661,490.803 439.828,489.137 438,487.5C 432.459,489.242 426.959,490.742 421.5,492C 422.855,488.788 424.355,485.622 426,482.5C 426.743,480.559 426.576,478.726 425.5,477C 421.833,476.333 418.167,476.333 414.5,477C 408.551,478.973 403.217,481.973 398.5,486C 397.216,486.684 396.049,486.517 395,485.5C 395.086,482.298 396.086,479.298 398,476.5C 404.678,467.139 410.845,457.472 416.5,447.5C 416.023,446.522 415.357,445.689 414.5,445C 407.615,443.902 400.949,444.569 394.5,447C 388.236,450.27 382.236,453.936 376.5,458C 372.345,461.988 368.345,466.155 364.5,470.5C 363.066,468.78 362.233,466.78 362,464.5C 361.667,460.167 361.333,455.833 361,451.5C 359.277,449.283 357.777,446.95 356.5,444.5C 358.965,442.163 361.965,440.663 365.5,440C 374.854,437.828 384.187,435.661 393.5,433.5C 402.089,431.696 410.756,430.196 419.5,429C 424.261,428.079 426.594,425.246 426.5,420.5C 424.952,411.86 423.619,403.193 422.5,394.5C 434.145,391.455 445.811,388.288 457.5,385C 460.146,384.503 462.813,384.336 465.5,384.5 Z"
       id="path74" />
  </g>
  <g
     id="g75">
    <path
       style="opacity:1"
       fill="#c29b59"
       d="M 422.5,394.5 C 423.619,403.193 424.952,411.86 426.5,420.5C 426.594,425.246 424.261,428.079 419.5,429C 410.756,430.196 402.089,431.696 393.5,433.5C 395.652,429.548 397.319,425.381 398.5,421C 396.461,414.636 395.127,408.136 394.5,401.5C 403.818,399.178 413.152,396.845 422.5,394.5 Z"
       id="path75" />
  </g>
  <g
     id="g76">
    <path
       style="opacity:1"
       fill="#929578"
       d="M 294.5,461.5 C 294.881,466.237 295.714,470.904 297,475.5C 306.769,482.302 316.269,489.469 325.5,497C 344.819,504.605 364.152,512.105 383.5,519.5C 383.5,519.833 383.5,520.167 383.5,520.5C 382.98,523.908 381.98,527.241 380.5,530.5C 362.691,526.215 344.691,522.882 326.5,520.5C 323.604,519.225 320.604,519.225 317.5,520.5C 314,515.84 309.667,512.007 304.5,509C 294.674,503.977 285.007,498.811 275.5,493.5C 269.759,484.359 264.259,475.026 259,465.5C 253.863,451.089 248.53,436.756 243,422.5C 242.501,417.845 242.334,413.179 242.5,408.5C 244.199,408.34 245.866,408.506 247.5,409C 252.831,413.998 256.997,419.831 260,426.5C 271,437.167 282,447.833 293,458.5C 293.513,459.527 294.013,460.527 294.5,461.5 Z"
       id="path76" />
  </g>
  <g
     id="g77">
    <path
       style="opacity:1"
       fill="#939678"
       d="M 356.5,444.5 C 357.777,446.95 359.277,449.283 361,451.5C 361.333,455.833 361.667,460.167 362,464.5C 362.233,466.78 363.066,468.78 364.5,470.5C 368.345,466.155 372.345,461.988 376.5,458C 382.236,453.936 388.236,450.27 394.5,447C 400.949,444.569 407.615,443.902 414.5,445C 415.357,445.689 416.023,446.522 416.5,447.5C 410.845,457.472 404.678,467.139 398,476.5C 396.086,479.298 395.086,482.298 395,485.5C 396.049,486.517 397.216,486.684 398.5,486C 403.217,481.973 408.551,478.973 414.5,477C 418.167,476.333 421.833,476.333 425.5,477C 426.576,478.726 426.743,480.559 426,482.5C 424.355,485.622 422.855,488.788 421.5,492C 426.959,490.742 432.459,489.242 438,487.5C 439.828,489.137 441.661,490.803 443.5,492.5C 438.092,499.039 431.092,502.706 422.5,503.5C 422.112,500.121 421.445,496.788 420.5,493.5C 413.713,496.464 407.046,499.63 400.5,503C 403.482,503.498 406.482,503.665 409.5,503.5C 408.036,504.16 406.369,504.493 404.5,504.5C 393.559,502.902 382.559,501.735 371.5,501C 365.756,499.987 360.089,498.654 354.5,497C 345.325,492.491 336.658,487.158 328.5,481C 324.666,478.332 321.333,475.165 318.5,471.5C 324.702,464.131 331.702,457.631 339.5,452C 344.432,447.868 350.099,445.368 356.5,444.5 Z"
       id="path77" />
  </g>
  <g
     id="g78">
    <path
       style="opacity:1"
       fill="#949778"
       d="M 535.5,482.5 C 535.183,486.702 535.517,490.702 536.5,494.5C 535.89,495.391 535.557,496.391 535.5,497.5C 534.732,496.737 534.232,495.737 534,494.5C 527.891,499.436 522.724,505.103 518.5,511.5C 517.389,490.116 515.889,468.783 514,447.5C 515.822,445.955 517.989,445.288 520.5,445.5C 523.861,445.112 526.694,446.112 529,448.5C 531.771,459.735 533.938,471.069 535.5,482.5 Z"
       id="path78" />
  </g>
  <g
     id="g79">
    <path
       style="opacity:1"
       fill="#c59e5a"
       d="M 383.5,520.5 C 383.5,520.167 383.5,519.833 383.5,519.5C 389.473,520.697 394.473,519.197 398.5,515C 407.963,516.637 412.296,512.804 411.5,503.5C 415.167,503.5 418.833,503.5 422.5,503.5C 431.092,502.706 438.092,499.039 443.5,492.5C 448.438,488.064 453.271,483.397 458,478.5C 460.908,473.184 463.408,467.684 465.5,462C 467.108,461.342 468.275,461.842 469,463.5C 470.106,467.122 470.439,470.789 470,474.5C 463.333,485.167 456.667,495.833 450,506.5C 448.167,508.333 446.333,510.167 444.5,512C 436.427,514.793 428.094,516.127 419.5,516C 417.623,518.106 415.29,519.439 412.5,520C 402.839,520.5 393.172,520.666 383.5,520.5 Z"
       id="path79" />
  </g>
  <g
     id="g80">
    <path
       style="opacity:1"
       fill="#707b65"
       d="M 294.5,461.5 C 301.564,466.969 309.564,470.302 318.5,471.5C 321.333,475.165 324.666,478.332 328.5,481C 336.658,487.158 345.325,492.491 354.5,497C 360.089,498.654 365.756,499.987 371.5,501C 382.559,501.735 393.559,502.902 404.5,504.5C 406.369,504.493 408.036,504.16 409.5,503.5C 410.167,503.5 410.833,503.5 411.5,503.5C 412.296,512.804 407.963,516.637 398.5,515C 394.473,519.197 389.473,520.697 383.5,519.5C 364.152,512.105 344.819,504.605 325.5,497C 316.269,489.469 306.769,482.302 297,475.5C 295.714,470.904 294.881,466.237 294.5,461.5 Z"
       id="path80" />
  </g>
  <g
     id="g81">
    <path
       style="opacity:1"
       fill="#bc9658"
       d="M 535.5,482.5 C 537.167,482.5 538.833,482.5 540.5,482.5C 538.863,486.376 537.529,490.376 536.5,494.5C 535.517,490.702 535.183,486.702 535.5,482.5 Z"
       id="path81" />
  </g>
  <g
     id="g82">
    <path
       style="opacity:1"
       fill="#e3f3f1"
       d="M 67.5,481.5 C 69.0174,481.511 70.1841,482.177 71,483.5C 74.3255,494.239 74.3255,504.905 71,515.5C 65.3513,504.579 64.1847,493.246 67.5,481.5 Z"
       id="path82" />
  </g>
  <g
     id="g83">
    <path
       style="opacity:1"
       fill="#2f96ad"
       d="M 152.5,490.5 C 154.288,490.215 155.955,490.548 157.5,491.5C 163.122,499.411 167.122,508.078 169.5,517.5C 168.079,522.077 165.079,523.577 160.5,522C 157.945,516.641 155.612,511.141 153.5,505.5C 150.281,504.01 147.615,504.677 145.5,507.5C 147.572,511.545 149.738,515.545 152,519.5C 153.357,525.981 150.857,528.481 144.5,527C 141.074,521.555 137.741,516.055 134.5,510.5C 131.427,511.026 129.094,512.526 127.5,515C 129.288,519.707 131.455,524.207 134,528.5C 134.371,533.754 131.871,535.921 126.5,535C 122.023,529.927 118.857,524.094 117,517.5C 115.231,510.874 117.397,506.04 123.5,503C 133.792,499.871 143.458,495.704 152.5,490.5 Z"
       id="path83" />
  </g>
  <g
     id="g84">
    <path
       style="opacity:1"
       fill="#fae64e"
       d="M 422.5,503.5 C 418.833,503.5 415.167,503.5 411.5,503.5C 410.833,503.5 410.167,503.5 409.5,503.5C 406.482,503.665 403.482,503.498 400.5,503C 407.046,499.63 413.713,496.464 420.5,493.5C 421.445,496.788 422.112,500.121 422.5,503.5 Z"
       id="path84" />
  </g>
  <g
     id="g85">
    <path
       style="opacity:1"
       fill="#707a64"
       d="M 535.5,497.5 C 534.139,507.575 532.306,517.575 530,527.5C 525.419,535.248 519.586,541.915 512.5,547.5C 510.938,546.215 509.604,544.715 508.5,543C 511.623,535.471 513.29,527.637 513.5,519.5C 516.182,517.47 517.849,514.803 518.5,511.5C 522.724,505.103 527.891,499.436 534,494.5C 534.232,495.737 534.732,496.737 535.5,497.5 Z"
       id="path85" />
  </g>
  <g
     id="g86">
    <path
       style="opacity:1"
       fill="#e6f5f4"
       d="M 86.5,493.5 C 87.675,493.281 88.675,493.614 89.5,494.5C 93.0887,499.272 94.2554,504.606 93,510.5C 89.7667,519.295 84.7667,526.962 78,533.5C 74.8216,518.881 77.6549,505.548 86.5,493.5 Z"
       id="path86" />
  </g>
  <g
     id="g87">
    <path
       style="opacity:1"
       fill="#6f7a64"
       d="M 275.5,493.5 C 285.007,498.811 294.674,503.977 304.5,509C 309.667,512.007 314,515.84 317.5,520.5C 313.423,521.37 309.423,522.537 305.5,524C 304.244,524.417 303.577,525.25 303.5,526.5C 292.516,516.84 283.182,505.84 275.5,493.5 Z"
       id="path87" />
  </g>
  <g
     id="g88">
    <path
       style="opacity:1"
       fill="#2f96ad"
       d="M 662.5,483.5 C 674.413,483.27 681.413,488.937 683.5,500.5C 682.271,505.57 680.771,510.57 679,515.5C 676.79,518.29 673.956,519.123 670.5,518C 664.315,515.049 657.981,513.049 651.5,512C 659.049,516.026 666.549,520.192 674,524.5C 674.667,526.167 674.667,527.833 674,529.5C 670.897,532.105 668.897,535.438 668,539.5C 666.167,541.333 664.333,543.167 662.5,545C 652.65,544.832 643.817,541.665 636,535.5C 633.951,530.841 635.451,527.841 640.5,526.5C 645.464,528.982 650.464,531.482 655.5,534C 656.784,534.684 657.951,534.517 659,533.5C 659.402,532.128 659.902,530.795 660.5,529.5C 657.112,527.139 653.446,525.306 649.5,524C 647.04,522.542 644.873,520.709 643,518.5C 642.184,513.967 644.017,511.134 648.5,510C 644.5,508.333 640.5,506.667 636.5,505C 633.624,500.906 634.457,497.739 639,495.5C 642.756,497.14 646.589,498.474 650.5,499.5C 650.758,495.56 651.924,491.893 654,488.5C 656.746,486.545 659.58,484.878 662.5,483.5 Z"
       id="path88" />
  </g>
  <g
     id="g89">
    <path
       style="opacity:1"
       fill="#eafafd"
       d="M 662.5,494.5 C 671.282,493.92 674.282,497.587 671.5,505.5C 670.667,505.833 669.833,506.167 669,506.5C 660.414,506.008 658.247,502.008 662.5,494.5 Z"
       id="path89" />
  </g>
  <g
     id="g90">
    <path
       style="opacity:1"
       fill="#c29b5a"
       d="M 326.5,520.5 C 325.761,520.369 325.094,520.536 324.5,521C 325.833,522.333 327.167,523.667 328.5,525C 334.764,528.27 340.764,531.936 346.5,536C 355.587,537.68 364.587,539.68 373.5,542C 375.041,543.371 376.375,544.871 377.5,546.5C 367.202,550.311 356.869,554.144 346.5,558C 345.62,559.356 345.286,560.856 345.5,562.5C 338.216,557.881 331.216,552.881 324.5,547.5C 325.389,545.264 326.722,543.264 328.5,541.5C 320.394,536.048 312.061,531.048 303.5,526.5C 303.577,525.25 304.244,524.417 305.5,524C 309.423,522.537 313.423,521.37 317.5,520.5C 320.604,519.225 323.604,519.225 326.5,520.5 Z"
       id="path90" />
  </g>
  <g
     id="g91">
    <path
       style="opacity:1"
       fill="#c39c5a"
       d="M 513.5,519.5 C 513.29,527.637 511.623,535.471 508.5,543C 509.604,544.715 510.938,546.215 512.5,547.5C 509.622,549.105 506.622,550.439 503.5,551.5C 500.448,548.424 497.614,545.09 495,541.5C 493.832,548.843 492.666,556.177 491.5,563.5C 485.483,565.383 480.483,568.717 476.5,573.5C 472.5,573.5 468.5,573.5 464.5,573.5C 461.167,573.5 457.833,573.5 454.5,573.5C 454.883,568.56 456.55,564.06 459.5,560C 454.708,558.079 449.875,557.579 445,558.5C 443.994,561.845 442.494,564.845 440.5,567.5C 438.025,565.67 435.359,564.336 432.5,563.5C 428.031,564.2 423.697,565.367 419.5,567C 417.167,567.667 414.833,567.667 412.5,567C 411.483,565.951 411.316,564.784 412,563.5C 415.191,557.779 418.358,552.112 421.5,546.5C 427.259,546.786 432.925,546.452 438.5,545.5C 447.657,546.658 456.991,546.824 466.5,546C 481.987,536.889 497.654,528.056 513.5,519.5 Z"
       id="path91" />
  </g>
  <g
     id="g92">
    <path
       style="opacity:1"
       fill="#949778"
       d="M 438.5,545.5 C 432.925,546.452 427.259,546.786 421.5,546.5C 408.833,546.5 396.167,546.5 383.5,546.5C 385.962,543.536 388.629,540.703 391.5,538C 399.84,534.499 408.506,532.166 417.5,531C 420.661,529.587 423.661,527.92 426.5,526C 430.152,525.501 433.818,525.335 437.5,525.5C 438.331,532.131 438.664,538.798 438.5,545.5 Z"
       id="path92" />
  </g>
  <g
     id="g93">
    <path
       style="opacity:1"
       fill="#2f96ad"
       d="M 164.5,553.5 C 158.219,555.975 152.553,559.475 147.5,564C 140.875,564.584 138.708,561.751 141,555.5C 146.116,551.698 151.283,548.031 156.5,544.5C 153.216,543.343 149.882,543.176 146.5,544C 142.268,547.942 137.434,549.108 132,547.5C 130.699,545.635 130.365,543.635 131,541.5C 133.009,539.161 135.342,537.161 138,535.5C 144.338,532.446 150.505,529.113 156.5,525.5C 161.114,526.886 162.781,529.719 161.5,534C 169.502,539.509 170.502,546.009 164.5,553.5 Z"
       id="path93" />
  </g>
  <g
     id="g94">
    <path
       style="opacity:1"
       fill="#707963"
       d="M 303.5,526.5 C 312.061,531.048 320.394,536.048 328.5,541.5C 326.722,543.264 325.389,545.264 324.5,547.5C 317.167,540.833 310.167,533.833 303.5,526.5 Z"
       id="path94" />
  </g>
  <g
     id="g95">
    <path
       style="opacity:1"
       fill="#2f96ad"
       d="M 619.5,529.5 C 621.308,529.491 622.975,529.991 624.5,531C 634.167,536.833 643.833,542.667 653.5,548.5C 659.073,551.265 659.74,554.765 655.5,559C 653.5,559.667 651.5,559.667 649.5,559C 642.018,554.758 634.685,550.258 627.5,545.5C 627.861,551.46 624.861,554.127 618.5,553.5C 616.813,563.757 620.313,571.423 629,576.5C 631.398,576.042 633.064,574.708 634,572.5C 635.102,568.584 635.769,564.584 636,560.5C 642.41,557.125 645.91,559.125 646.5,566.5C 645.125,580.056 637.791,586.556 624.5,586C 618.417,583.585 613.917,579.418 611,573.5C 607.859,566.816 606.859,559.816 608,552.5C 610.674,548.42 613.34,544.42 616,540.5C 614.556,535.927 615.723,532.26 619.5,529.5 Z"
       id="path95" />
  </g>
  <g
     id="g96">
    <path
       style="opacity:1"
       fill="#e4eae0"
       d="M 54.5,540.5 C 63.9223,540.573 71.2557,544.573 76.5,552.5C 67.558,554.724 60.058,552.391 54,545.5C 53.3603,543.735 53.5269,542.068 54.5,540.5 Z"
       id="path96" />
  </g>
  <g
     id="g97">
    <path
       style="opacity:1"
       fill="#707861"
       d="M 503.5,551.5 C 499.833,555.833 495.833,559.833 491.5,563.5C 492.666,556.177 493.832,548.843 495,541.5C 497.614,545.09 500.448,548.424 503.5,551.5 Z"
       id="path97" />
  </g>
  <g
     id="g98">
    <path
       style="opacity:1"
       fill="#717b65"
       d="M 377.5,546.5 C 379.5,546.5 381.5,546.5 383.5,546.5C 396.167,546.5 408.833,546.5 421.5,546.5C 418.358,552.112 415.191,557.779 412,563.5C 411.316,564.784 411.483,565.951 412.5,567C 414.833,567.667 417.167,567.667 419.5,567C 423.697,565.367 428.031,564.2 432.5,563.5C 435.359,564.336 438.025,565.67 440.5,567.5C 442.494,564.845 443.994,561.845 445,558.5C 449.875,557.579 454.708,558.079 459.5,560C 456.55,564.06 454.883,568.56 454.5,573.5C 430.833,573.5 407.167,573.5 383.5,573.5C 378.167,572.167 372.833,570.833 367.5,569.5C 360.093,567.418 352.76,565.085 345.5,562.5C 345.286,560.856 345.62,559.356 346.5,558C 356.869,554.144 367.202,550.311 377.5,546.5 Z"
       id="path98" />
  </g>
  <g
     id="g99">
    <path
       style="opacity:1"
       fill="#2f96ad"
       d="M 193.5,576.5 C 193.66,578.199 193.494,579.866 193,581.5C 186.265,587.738 179.098,593.405 171.5,598.5C 166.641,597.82 164.807,595.153 166,590.5C 171.001,585.413 176.501,580.913 182.5,577C 174.31,578.03 166.144,579.53 158,581.5C 154.426,581.095 152.259,579.095 151.5,575.5C 156.209,568.354 160.542,561.021 164.5,553.5C 168.004,549.565 171.504,549.565 175,553.5C 175.667,554.833 175.667,556.167 175,557.5C 172.959,561.084 170.792,564.584 168.5,568C 173.446,567.134 178.446,566.468 183.5,566C 186.039,567.805 187.039,570.305 186.5,573.5C 187.873,573.343 189.207,573.51 190.5,574C 191.078,575.417 192.078,576.25 193.5,576.5 Z"
       id="path99" />
  </g>
  <g
     id="g100">
    <path
       style="opacity:1"
       fill="#2e96ad"
       d="M 193.5,576.5 C 191.173,571.37 192.506,567.703 197.5,565.5C 204.976,569.72 205.142,574.053 198,578.5C 196.67,577.418 195.17,576.751 193.5,576.5 Z"
       id="path100" />
  </g>
  <g
     id="g101">
    <path
       style="opacity:1"
       fill="#b0655f"
       d="M 367.5,569.5 C 372.833,570.833 378.167,572.167 383.5,573.5C 383.687,575.564 384.187,577.564 385,579.5C 387.668,583.334 390.835,586.667 394.5,589.5C 394.328,590.492 394.662,591.158 395.5,591.5C 397.367,595.052 400.034,597.886 403.5,600C 411.5,600.333 419.5,600.667 427.5,601C 436.765,605.9 436.765,610.9 427.5,616C 402.115,615.359 376.782,613.693 351.5,611C 350.167,607.667 350.167,604.333 351.5,601C 359.993,598.043 368.66,595.71 377.5,594C 373.933,591.643 371.933,588.477 371.5,584.5C 370.324,579.463 368.991,574.463 367.5,569.5 Z"
       id="path101" />
  </g>
  <g
     id="g102">
    <path
       style="opacity:1"
       fill="#010101"
       d="M 383.5,573.5 C 407.167,573.5 430.833,573.5 454.5,573.5C 457.833,573.5 461.167,573.5 464.5,573.5C 464.5,578.833 464.5,584.167 464.5,589.5C 441.167,589.5 417.833,589.5 394.5,589.5C 390.835,586.667 387.668,583.334 385,579.5C 384.187,577.564 383.687,575.564 383.5,573.5 Z"
       id="path102" />
  </g>
  <g
     id="g103">
    <path
       style="opacity:1"
       fill="#af635d"
       d="M 464.5,573.5 C 468.5,573.5 472.5,573.5 476.5,573.5C 479.862,577.192 483.195,580.859 486.5,584.5C 491.052,591.551 497.052,597.051 504.5,601C 514.401,603.451 524.401,605.284 534.5,606.5C 534.784,609.777 534.451,612.943 533.5,616C 507.256,617.84 481.256,616.173 455.5,611C 452.304,606.319 452.97,602.319 457.5,599C 461.349,596.575 465.349,594.408 469.5,592.5C 468.423,591.295 467.09,590.628 465.5,590.5C 465.5,589.833 465.167,589.5 464.5,589.5C 464.5,584.167 464.5,578.833 464.5,573.5 Z"
       id="path103" />
  </g>
  <g
     id="g104">
    <path
       style="opacity:1"
       fill="#e4f4f2"
       d="M 685.5,574.5 C 687.752,574.916 689.252,576.249 690,578.5C 691.702,592.423 687.702,604.423 678,614.5C 676.62,602.915 677.62,591.582 681,580.5C 682.332,578.34 683.832,576.34 685.5,574.5 Z"
       id="path104" />
  </g>
  <g
     id="g105">
    <path
       style="opacity:1"
       fill="#889497"
       d="M 394.5,589.5 C 417.833,589.5 441.167,589.5 464.5,589.5C 465.167,589.5 465.5,589.833 465.5,590.5C 441.994,590.169 418.661,590.502 395.5,591.5C 394.662,591.158 394.328,590.492 394.5,589.5 Z"
       id="path105" />
  </g>
  <g
     id="g106">
    <path
       style="opacity:1"
       fill="#2c95ad"
       d="M 586.5,594.5 C 589.271,594.421 591.937,594.921 594.5,596C 600.736,602.068 606.736,608.235 612.5,614.5C 611.37,618.156 609.036,619.989 605.5,620C 599.377,616.211 594.21,611.378 590,605.5C 589.333,608.167 589.333,610.833 590,613.5C 593.288,617.773 596.121,622.273 598.5,627C 597.315,632.381 594.315,633.714 589.5,631C 582.665,624.105 576.665,616.605 571.5,608.5C 572.799,604.603 575.299,603.269 579,604.5C 580.306,600.199 582.806,596.866 586.5,594.5 Z"
       id="path106" />
  </g>
  <g
     id="g107">
    <path
       style="opacity:1"
       fill="#2d95ad"
       d="M 195.5,583.5 C 199.68,584.01 201.68,586.344 201.5,590.5C 208.146,591.967 211.646,595.967 212,602.5C 211.215,604.286 210.049,605.786 208.5,607C 212.784,606.543 217.118,606.543 221.5,607C 229.538,610.243 232.371,616.077 230,624.5C 226.966,632.193 221.299,636.526 213,637.5C 201.172,635.864 196.838,629.197 200,617.5C 201.461,613.74 203.961,610.907 207.5,609C 199.391,610.732 197.058,607.898 200.5,600.5C 197.894,599.348 195.227,599.182 192.5,600C 188.907,604.266 184.741,607.766 180,610.5C 176.099,609.682 174.432,607.349 175,603.5C 181.729,596.603 188.562,589.937 195.5,583.5 Z"
       id="path107" />
  </g>
  <g
     id="g108">
    <path
       style="opacity:1"
       fill="#527e2e"
       d="M 116.5,605.5 C 123.803,614.475 131.137,623.475 138.5,632.5C 137.043,636.049 134.377,637.216 130.5,636C 124.212,627.923 118.045,619.756 112,611.5C 111.013,607.652 112.513,605.652 116.5,605.5 Z"
       id="path108" />
  </g>
  <g
     id="g109">
    <path
       style="opacity:1"
       fill="#e1f1ee"
       d="M 665.5,605.5 C 668.292,605.452 670.125,606.785 671,609.5C 671.947,614.04 671.447,618.374 669.5,622.5C 663.574,617.722 662.24,612.055 665.5,605.5 Z"
       id="path109" />
  </g>
  <g
     id="g110">
    <path
       style="opacity:1"
       fill="#2e95ad"
       d="M 563.5,615.5 C 572.387,615.207 578.553,619.207 582,627.5C 585.265,641.557 579.765,648.391 565.5,648C 554.226,642.868 550.726,634.368 555,622.5C 557.464,619.519 560.297,617.186 563.5,615.5 Z"
       id="path110" />
  </g>
  <g
     id="g111">
    <path
       style="opacity:1"
       fill="#e2f5fa"
       d="M 214.5,616.5 C 220.802,616.903 221.968,619.57 218,624.5C 214.058,628.951 211.224,628.451 209.5,623C 210.635,620.372 212.302,618.205 214.5,616.5 Z"
       id="path111" />
  </g>
  <g
     id="g112">
    <path
       style="opacity:1"
       fill="#2e96ad"
       d="M 238.5,619.5 C 242.806,619.303 244.806,621.303 244.5,625.5C 251.317,625.369 255.65,628.535 257.5,635C 253.988,643.192 249.821,651.025 245,658.5C 240.346,661.424 237.179,660.258 235.5,655C 237.832,648.496 241.165,642.496 245.5,637C 242.07,636.541 239.07,637.541 236.5,640C 234.074,643.516 231.407,646.849 228.5,650C 223.201,651.033 220.701,648.866 221,643.5C 225.637,636.031 230.47,628.698 235.5,621.5C 236.602,620.824 237.602,620.158 238.5,619.5 Z"
       id="path112" />
  </g>
  <g
     id="g113">
    <path
       style="opacity:1"
       fill="#3297ae"
       d="M 539.5,630.5 C 533.644,630.146 531.477,627.146 533,621.5C 537.933,617.024 541.766,617.857 544.5,624C 543.717,626.938 542.05,629.104 539.5,630.5 Z"
       id="path113" />
  </g>
  <g
     id="g114">
    <path
       style="opacity:1"
       fill="#e6f7fb"
       d="M 566.5,625.5 C 571.509,627.878 573.509,631.878 572.5,637.5C 567.262,637.767 564.262,635.267 563.5,630C 564.008,628.107 565.008,626.607 566.5,625.5 Z"
       id="path114" />
  </g>
  <g
     id="g115">
    <path
       style="opacity:1"
       fill="#3096ae"
       d="M 539.5,630.5 C 543.588,628.585 546.754,629.585 549,633.5C 552.165,639.834 555.831,645.834 560,651.5C 560.763,658.053 557.93,660.219 551.5,658C 546.331,650.667 541.664,643 537.5,635C 538.267,633.53 538.933,632.03 539.5,630.5 Z"
       id="path115" />
  </g>
  <g
     id="g116">
    <path
       style="opacity:1"
       fill="#2e96ad"
       d="M 518.5,631.5 C 523.048,631.199 526.215,633.199 528,637.5C 535.075,633.041 538.408,635.041 538,643.5C 536.082,644.542 534.249,645.708 532.5,647C 535.703,651.289 538.536,655.789 541,660.5C 543.556,667.919 541.056,671.085 533.5,670C 530.153,664.301 526.82,658.634 523.5,653C 520.525,652.956 517.525,653.123 514.5,653.5C 514.677,655.981 513.677,657.814 511.5,659C 509.144,659.155 506.811,659.155 504.5,659C 503.151,659.772 502.318,660.939 502,662.5C 499.484,670.033 501.984,673.2 509.5,672C 511.127,669.219 513.46,667.386 516.5,666.5C 519.804,666.634 521.47,668.3 521.5,671.5C 516.104,682.699 507.771,685.699 496.5,680.5C 489.15,671.923 488.65,662.923 495,653.5C 499.982,649.772 505.482,648.772 511.5,650.5C 511.613,646.39 513.613,643.724 517.5,642.5C 514.646,638.447 514.979,634.78 518.5,631.5 Z"
       id="path116" />
  </g>
  <g
     id="g117">
    <path
       style="opacity:1"
       fill="#2d95ad"
       d="M 262.5,634.5 C 266.693,634.362 269.027,636.362 269.5,640.5C 274.445,639.971 278.112,641.804 280.5,646C 292.201,646.556 296.034,652.389 292,663.5C 290.006,668.823 288.006,674.157 286,679.5C 278.478,683.325 275.478,680.992 277,672.5C 278.935,667.527 280.768,662.527 282.5,657.5C 280.525,656.422 278.692,656.755 277,658.5C 275.646,664.58 273.146,670.08 269.5,675C 264.919,676.377 262.252,674.71 261.5,670C 263.91,664.187 266.244,658.354 268.5,652.5C 266.405,651.771 264.572,652.437 263,654.5C 261.213,658.577 259.046,662.41 256.5,666C 251.859,667.651 249.193,666.151 248.5,661.5C 251.329,654.122 254.496,646.789 258,639.5C 259.707,637.963 261.207,636.296 262.5,634.5 Z"
       id="path117" />
  </g>
  <g
     id="g118">
    <path
       style="opacity:1"
       fill="#e7f6f5"
       d="M 631.5,634.5 C 637.913,633.747 640.913,636.58 640.5,643C 639.345,652.812 635.178,660.978 628,667.5C 621.643,658.591 620.976,649.257 626,639.5C 627.812,637.7 629.645,636.033 631.5,634.5 Z"
       id="path118" />
  </g>
  <g
     id="g119">
    <path
       style="opacity:1"
       fill="#e6ebe2"
       d="M 686.5,634.5 C 690.514,634.334 694.514,634.501 698.5,635C 701.706,635.625 702.706,637.291 701.5,640C 696.207,643.082 690.54,645.416 684.5,647C 678.472,647.83 672.472,647.664 666.5,646.5C 672.312,640.933 678.979,636.933 686.5,634.5 Z"
       id="path119" />
  </g>
  <g
     id="g120">
    <path
       style="opacity:1"
       fill="#517e2d"
       d="M 144.5,639.5 C 152.779,647.113 160.779,655.113 168.5,663.5C 168.178,667.976 165.844,669.476 161.5,668C 154.333,660.833 147.167,653.667 140,646.5C 138.524,642.156 140.024,639.822 144.5,639.5 Z"
       id="path120" />
  </g>
  <g
     id="g121">
    <path
       style="opacity:1"
       fill="#2f96ad"
       d="M 468.5,649.5 C 471.505,649.253 474.005,650.253 476,652.5C 480.975,663.784 486.475,674.784 492.5,685.5C 491.563,689.283 489.229,690.783 485.5,690C 482.296,687.131 479.463,683.965 477,680.5C 473.878,681.645 470.711,682.645 467.5,683.5C 466.962,688.111 465.629,692.444 463.5,696.5C 458.338,698.251 455.338,696.418 454.5,691C 454.963,688.611 455.63,686.277 456.5,684C 454.932,681.369 455.432,679.203 458,677.5C 460.127,667.593 463.627,658.259 468.5,649.5 Z"
       id="path121" />
  </g>
  <g
     id="g122">
    <path
       style="opacity:1"
       fill="#2e95ad"
       d="M 413.5,655.5 C 415.527,655.338 417.527,655.505 419.5,656C 420.126,656.75 420.626,657.584 421,658.5C 423.084,672.773 423.751,687.106 423,701.5C 417.798,704.877 414.465,703.543 413,697.5C 412.444,684.923 411.611,672.423 410.5,660C 411.386,658.385 412.386,656.885 413.5,655.5 Z"
       id="path122" />
  </g>
  <g
     id="g123">
    <path
       style="opacity:1"
       fill="#2f96ae"
       d="M 302.5,657.5 C 310.776,655.98 317.609,658.313 323,664.5C 324.14,668.389 323.307,671.722 320.5,674.5C 314.99,676.234 309.323,677.4 303.5,678C 305.479,679.208 307.645,680.041 310,680.5C 313.898,678.703 317.231,679.37 320,682.5C 320.522,686.596 318.688,689.096 314.5,690C 305.592,691.459 298.425,688.626 293,681.5C 289.798,670.913 292.965,662.913 302.5,657.5 Z"
       id="path123" />
  </g>
  <g
     id="g124">
    <path
       style="opacity:1"
       fill="#2e96ad"
       d="M 363.5,660.5 C 370.833,659.167 373.833,662.167 372.5,669.5C 380.305,669.101 382.638,672.268 379.5,679C 376.998,680.415 374.332,680.581 371.5,679.5C 371.161,686.573 370.328,693.573 369,700.5C 364.445,703.617 360.945,702.617 358.5,697.5C 360.253,691.306 360.919,684.973 360.5,678.5C 353.737,678.453 351.737,675.286 354.5,669C 356.677,667.798 359.011,667.298 361.5,667.5C 361.4,664.892 362.067,662.558 363.5,660.5 Z"
       id="path124" />
  </g>
  <g
     id="g125">
    <path
       style="opacity:1"
       fill="#2e95ad"
       d="M 328.5,662.5 C 334.244,664.31 340.244,665.477 346.5,666C 348.939,666.774 350.773,668.274 352,670.5C 352.191,680.185 351.024,689.685 348.5,699C 345.281,701.045 342.448,700.545 340,697.5C 339.373,689.964 340.04,682.63 342,675.5C 339.708,676.79 337.708,678.457 336,680.5C 334.268,685.447 332.435,690.281 330.5,695C 327.281,697.045 324.448,696.545 322,693.5C 321.333,690.833 321.333,688.167 322,685.5C 324.49,677.854 326.657,670.187 328.5,662.5 Z"
       id="path125" />
  </g>
  <g
     id="g126">
    <path
       style="opacity:1"
       fill="#e9eee6"
       d="M 651.5,664.5 C 656.569,663.909 661.236,664.909 665.5,667.5C 667.13,670.896 666.463,673.729 663.5,676C 659.741,677.913 655.741,678.747 651.5,678.5C 646.063,678.623 640.896,677.623 636,675.5C 635.837,673.613 636.671,672.113 638.5,671C 642.394,667.72 646.727,665.553 651.5,664.5 Z"
       id="path126" />
  </g>
  <g
     id="g127">
    <path
       style="opacity:1"
       fill="#517d2d"
       d="M 205.5,692.5 C 205.364,698.375 202.697,699.875 197.5,697C 189.242,690.62 181.076,684.12 173,677.5C 172.322,675.402 172.489,673.402 173.5,671.5C 175.068,670.527 176.735,670.36 178.5,671C 187.111,678.791 196.111,685.958 205.5,692.5 Z"
       id="path127" />
  </g>
  <g
     id="g128">
    <path
       style="opacity:1"
       fill="#2d95ad"
       d="M 392.5,671.5 C 398.889,670.476 404.389,672.143 409,676.5C 408.544,682.13 408.544,687.796 409,693.5C 412.941,702.728 410.107,705.728 400.5,702.5C 388.112,706.63 381.112,702.13 379.5,689C 381.028,680.986 385.361,675.153 392.5,671.5 Z"
       id="path128" />
  </g>
  <g
     id="g129">
    <path
       style="opacity:1"
       fill="#d2e5d9"
       d="M 609.5,668.5 C 610.833,668.5 612.167,668.5 613.5,668.5C 613.672,673.154 612.172,677.154 609,680.5C 606.954,676.356 607.12,672.356 609.5,668.5 Z"
       id="path129" />
  </g>
  <g
     id="g130">
    <path
       style="opacity:1"
       fill="#e9f9fd"
       d="M 394.5,681.5 C 395.5,681.5 396.5,681.5 397.5,681.5C 397.284,685.059 397.618,688.559 398.5,692C 396.187,695.037 393.687,695.204 391,692.5C 389.882,688.077 391.049,684.41 394.5,681.5 Z"
       id="path130" />
  </g>
  <g
     id="g131">
    <path
       style="opacity:1"
       fill="#c2d0b6"
       d="M 618.5,688.5 C 621.187,688.336 623.854,688.503 626.5,689C 627.815,690.395 627.481,691.395 625.5,692C 621.967,692.903 618.633,692.57 615.5,691C 616.942,690.623 617.942,689.79 618.5,688.5 Z"
       id="path131" />
  </g>
  <g
     id="g132">
    <path
       style="opacity:1"
       fill="#537e2f"
       d="M 214.5,697.5 C 225.282,704.298 236.282,710.631 247.5,716.5C 247.993,720.338 246.326,722.338 242.5,722.5C 231.112,717.922 220.612,711.922 211,704.5C 209.687,700.795 210.854,698.462 214.5,697.5 Z"
       id="path132" />
  </g>
  <path
     style="fill:url(#linearGradient2);stroke-width:0;fill-opacity:1"
     d="M -0.5294401,798.76816 C -0.78708626,798.08932 -0.88433707,617.97781 -0.74555295,398.52035 L -0.49321825,-0.49321825 H 399.50678 h 400 V 399.50678 v 400 l -399.78389,0.24781 C 80.412314,799.95253 -0.1552873,799.75396 -0.5294401,798.76816 Z M 448.80171,788.72087 c 46.32189,-5.4841 85.03596,-17.02713 127.86485,-38.12435 37.23294,-18.34069 68.77154,-41.00664 99.73543,-71.67721 63.17837,-62.57985 100.3856,-138.56329 113.39433,-231.57036 2.49144,-17.81282 2.47919,-66.43614 -0.0221,-87.79285 C 782.80051,300.01383 765.96073,249.37903 737.12016,201.23305 718.01863,169.34527 690.09785,134.57102 667.42782,114.43392 609.70343,63.159137 548.10079,31.979666 476.44883,17.772075 450.24204,12.575633 408.35107,9.1639339 384.71023,10.300668 306.98932,14.03776 232.13423,40.461741 168.9867,86.45147 c -13.55598,9.872695 -16.37259,12.352397 -36.69508,32.30577 -47.371301,46.51088 -80.462097,97.6523 -99.808902,154.25341 -13.851255,40.52331 -19.486199,73.71182 -20.35405,119.88062 -0.822934,43.77925 1.488061,69.28771 9.044657,99.83376 13.801829,55.79117 38.468315,106.41811 73.196135,150.23204 36.86013,46.50413 78.4952,80.17494 132.72073,107.33296 46.13909,23.10804 92.67929,35.90071 146.27602,40.2074 11.6049,0.93249 62.72149,-0.27135 75.4355,-1.77656 z"
     id="path133" />
</svg>
