<?xml version="1.0" encoding="UTF-8" standalone="no"?>
<!-- Created with Inkscape (http://www.inkscape.org/) -->

<svg
   version="1.1"
   id="svg1"
   width="1468.1946"
   height="814.02795"
   viewBox="0 0 1468.1946 814.02795"
   sodipodi:docname="tinygoggles.svg"
   inkscape:version="1.3 (0e150ed6c4, 2023-07-21)"
   inkscape:export-filename="tinygoggles.svg"
   inkscape:export-xdpi="96"
   inkscape:export-ydpi="96"
   xmlns:inkscape="http://www.inkscape.org/namespaces/inkscape"
   xmlns:sodipodi="http://sodipodi.sourceforge.net/DTD/sodipodi-0.dtd"
   xmlns="http://www.w3.org/2000/svg"
   xmlns:svg="http://www.w3.org/2000/svg">
  <defs
     id="defs1" />
  <sodipodi:namedview
     id="namedview1"
     pagecolor="#ffffff"
     bordercolor="#999999"
     borderopacity="1"
     inkscape:showpageshadow="2"
     inkscape:pageopacity="0"
     inkscape:pagecheckerboard="0"
     inkscape:deskcolor="#d1d1d1"
     showgrid="false"
     inkscape:zoom="0.5"
     inkscape:cx="378"
     inkscape:cy="869"
     inkscape:window-width="2560"
     inkscape:window-height="1417"
     inkscape:window-x="-8"
     inkscape:window-y="-8"
     inkscape:window-maximized="1"
     inkscape:current-layer="g1" />
  <g
     inkscape:groupmode="layer"
     inkscape:label="Image"
     id="g1"
     transform="translate(-12.500061,-17.750092)">
    <circle
       style="fill:#297d4e;fill-opacity:1;stroke-width:1"
       id="path172"
       cx="408.51407"
       cy="413.7641"
       r="396.01401" />
    <circle
       style="fill:#297d4e;fill-opacity:1;stroke-width:1"
       id="path172-9"
       cx="1084.6807"
       cy="435.7641"
       r="396.01401" />
    <path
       style="fill:#297d4e;fill-opacity:1;stroke-width:1"
       id="path173"
       d="m 432.9421,648.72627 c 63.14538,-2.79246 126.39372,-3.08258 189.59134,-3.87556 72.82357,-1.5487 145.67024,-0.42147 218.49685,-1.20077 24.89948,-0.23667 49.74087,-2.09171 74.60385,-3.29304 9.70659,-0.39224 4.98798,-0.23007 14.15552,-0.49691 0,0 -22.51076,-16.23488 -22.51076,-16.23488 v 0 c -9.09833,0.37244 -4.40744,0.16501 -14.07245,0.6308 -24.44019,1.59828 -48.87634,3.44307 -73.36697,4.06083 -71.97517,2.03071 -143.99719,2.03034 -215.99046,2.99199 -64.57574,0.67888 -129.15167,0.57422 -193.72468,1.08697 z" />
    <path
       style="opacity:1;fill:#ffffff;fill-opacity:1;stroke:none;stroke-width:0;stroke-dasharray:none;stroke-opacity:1"
       d="m 434.08631,772.84752 202.72143,-2.35721 14.14337,-16.50059 c 0,0 174.11472,37.41417 270.50906,-69.74043 80.29123,-89.25402 91.01173,-131.98363 92.16053,-167.82394 0.9287,-28.97277 0.3433,-118.37679 0.3433,-118.37679 l 91.9318,-47.14451 -96.6463,-40.07284 c 0,0 -19.336,-92.01735 -106.07518,-94.28906 -87.01371,-2.27897 -127.29023,106.07517 -127.29023,106.07517 z"
       id="path177"
       sodipodi:nodetypes="cccsscccscc" />
    <circle
       style="opacity:1;fill:#297d4e;fill-opacity:1;stroke:none;stroke-width:0;stroke-dasharray:none;stroke-opacity:1"
       id="path178"
       cx="918.22577"
       cy="324.37659"
       r="16.061453" />
  </g>
</svg>
