<?xml version="1.0" encoding="UTF-8" standalone="no"?>
<!-- Created with Inkscape (http://www.inkscape.org/) -->

<svg
   version="1.1"
   id="svg1"
   width="960"
   height="129"
   viewBox="0 0 959.99998 129"
   sodipodi:docname="TopBanner2.svg"
   inkscape:version="1.3 (0e150ed6c4, 2023-07-21)"
   xmlns:inkscape="http://www.inkscape.org/namespaces/inkscape"
   xmlns:sodipodi="http://sodipodi.sourceforge.net/DTD/sodipodi-0.dtd"
   xmlns:xlink="http://www.w3.org/1999/xlink"
   xmlns="http://www.w3.org/2000/svg"
   xmlns:svg="http://www.w3.org/2000/svg">
  <defs
     id="defs1">
    <linearGradient
       id="linearGradient70"
       inkscape:collect="always">
      <stop
         style="stop-color:#167139;stop-opacity:1;"
         offset="0"
         id="stop69" />
      <stop
         style="stop-color:#17733b;stop-opacity:1;"
         offset="1"
         id="stop70" />
    </linearGradient>
    <linearGradient
       id="linearGradient64"
       inkscape:collect="always">
      <stop
         style="stop-color:#186431;stop-opacity:1;"
         offset="0"
         id="stop64" />
      <stop
         style="stop-color:#186733;stop-opacity:1;"
         offset="1"
         id="stop65" />
    </linearGradient>
    <linearGradient
       id="linearGradient23"
       inkscape:collect="always">
      <stop
         style="stop-color:#185c2b;stop-opacity:1;"
         offset="0"
         id="stop23" />
      <stop
         style="stop-color:#186733;stop-opacity:1;"
         offset="1"
         id="stop24" />
    </linearGradient>
    <linearGradient
       id="linearGradient19"
       inkscape:collect="always">
      <stop
         style="stop-color:#186733;stop-opacity:1;"
         offset="0"
         id="stop19" />
      <stop
         style="stop-color:#208848;stop-opacity:1;"
         offset="1"
         id="stop20" />
    </linearGradient>
    <linearGradient
       id="linearGradient17"
       inkscape:collect="always">
      <stop
         style="stop-color:#1c3611;stop-opacity:1;"
         offset="0"
         id="stop17" />
      <stop
         style="stop-color:#0fbd6d;stop-opacity:1;"
         offset="1"
         id="stop18" />
    </linearGradient>
    <linearGradient
       id="linearGradient15"
       inkscape:collect="always">
      <stop
         style="stop-color:#186733;stop-opacity:1"
         offset="0"
         id="stop15" />
      <stop
         style="stop-color:#177139;stop-opacity:1"
         offset="1"
         id="stop16" />
    </linearGradient>
    <linearGradient
       inkscape:collect="always"
       xlink:href="#linearGradient15"
       id="linearGradient16"
       x1="369.23877"
       y1="51.079613"
       x2="410.00705"
       y2="48.452187"
       gradientUnits="userSpaceOnUse" />
    <linearGradient
       inkscape:collect="always"
       xlink:href="#linearGradient17"
       id="linearGradient18"
       x1="3.3333333"
       y1="66.827713"
       x2="948.42303"
       y2="60.615108"
       gradientUnits="userSpaceOnUse" />
    <linearGradient
       inkscape:collect="always"
       xlink:href="#linearGradient19"
       id="linearGradient20"
       x1="81.229828"
       y1="117.1022"
       x2="352.72073"
       y2="117.1022"
       gradientUnits="userSpaceOnUse"
       gradientTransform="translate(-3.314563,-3.3366602)" />
    <linearGradient
       inkscape:collect="always"
       xlink:href="#linearGradient23"
       id="linearGradient24"
       x1="271.4859"
       y1="105.76089"
       x2="352.53632"
       y2="106.31001"
       gradientUnits="userSpaceOnUse"
       gradientTransform="matrix(1.1475091,0,0,1.1931101,-51.30453,-26.209816)" />
    <linearGradient
       inkscape:collect="always"
       xlink:href="#linearGradient64"
       id="linearGradient65"
       x1="328"
       y1="54.929691"
       x2="361.29688"
       y2="54.929691"
       gradientUnits="userSpaceOnUse"
       gradientTransform="matrix(1,0,0,0.99699112,-3.314563,-3.0151335)" />
    <linearGradient
       inkscape:collect="always"
       xlink:href="#linearGradient70"
       id="linearGradient68"
       gradientUnits="userSpaceOnUse"
       gradientTransform="matrix(0.3693847,0.035664,0,0.00893525,293.1183,90.555596)"
       x1="328"
       y1="54.929691"
       x2="361.29688"
       y2="54.929691" />
  </defs>
  <sodipodi:namedview
     id="namedview1"
     pagecolor="#ffffff"
     bordercolor="#999999"
     borderopacity="1"
     inkscape:showpageshadow="2"
     inkscape:pageopacity="0"
     inkscape:pagecheckerboard="0"
     inkscape:deskcolor="#d1d1d1"
     inkscape:zoom="1"
     inkscape:cx="344.5"
     inkscape:cy="164"
     inkscape:window-width="1920"
     inkscape:window-height="1046"
     inkscape:window-x="-11"
     inkscape:window-y="-11"
     inkscape:window-maximized="1"
     inkscape:current-layer="g1"
     showgrid="false" />
  <g
     inkscape:groupmode="layer"
     inkscape:label="Image"
     id="g1">
    <g
       id="g12"
       transform="translate(-3.314563,-3.3366602)">
      <path
         style="fill:url(#linearGradient16);fill-opacity:1"
         d="M 82.333332,129.99269 C 65.882359,129.24807 46.321354,127.79127 22.5,125.53662 3.3333333,123.72252 3.3333333,123.72252 3.3333333,121.86126 c 0,-1.07983 0.362753,-1.86126 0.8640323,-1.86126 0.4752178,0 7.3002174,0.73896 15.1666664,1.64213 29.275087,3.36116 68.14219,5.40548 89.969298,4.73218 7.88333,-0.24317 19.58333,-0.88881 26,-1.43476 19.73692,-1.67925 31.67881,-3.27836 66.66667,-8.92713 21.62985,-3.49213 45.16082,-6.80614 56.66666,-7.98071 19.32854,-1.97315 42.70444,-3.40898 67.35913,-4.13745 l 27.30754,-0.80684 V 53.210375 3.3333333 h 29.33333 29.33333 V 54.873101 106.41287 l -32.16666,0.8161 c -17.69167,0.44886 -40.56667,1.39166 -50.83334,2.09511 -32.14216,2.20231 -49.75111,4.16227 -95.99999,10.68524 -45.59053,6.43013 -51.68144,7.15125 -76,8.99797 -16.17944,1.22865 -57.302351,1.77136 -74.666668,0.9854 z m 659.866048,0.17712 c 3.22634,-0.12247 8.32634,-0.12184 11.33334,10e-4 3.00699,0.12324 0.36726,0.22345 -5.86607,0.22268 -6.23333,-7.7e-4 -8.6936,-0.1016 -5.46727,-0.22407 z m 51.9381,0.003 c 2.45896,-0.1279 6.65896,-0.12875 9.33334,-0.002 2.67437,0.12687 0.6625,0.23152 -4.47084,0.23256 -5.13333,0.001 -7.32146,-0.10276 -4.8625,-0.23067 z m -74.30416,-0.65522 c 1.19166,-0.14789 3.14166,-0.14789 4.33333,0 1.19167,0.14788 0.21667,0.26888 -2.16667,0.26888 -2.38333,0 -3.35833,-0.121 -2.16666,-0.26888 z m 100,0 c 1.19166,-0.14789 3.14166,-0.14789 4.33333,0 1.19167,0.14788 0.21667,0.26888 -2.16667,0.26888 -2.38333,0 -3.35833,-0.121 -2.16666,-0.26888 z m -112,-0.6549 c 0.825,-0.1589 2.175,-0.1589 3,0 0.825,0.15891 0.15,0.28892 -1.5,0.28892 -1.65,0 -2.325,-0.13001 -1.5,-0.28892 z m 124,0 c 0.825,-0.1589 2.175,-0.1589 3,0 0.825,0.15891 0.15,0.28892 -1.5,0.28892 -1.65,0 -2.325,-0.13001 -1.5,-0.28892 z m -134.66667,-0.66666 c 0.825,-0.1589 2.175,-0.1589 3,0 0.825,0.1589 0.15,0.28891 -1.5,0.28891 -1.65,0 -2.325,-0.13001 -1.5,-0.28891 z m 145.34111,-0.001 c 0.82927,-0.15946 2.02927,-0.15341 2.66666,0.0135 0.63739,0.16686 -0.0411,0.29733 -1.50777,0.28993 -1.46667,-0.007 -1.98817,-0.14392 -1.15889,-0.30338 z m -153.67444,-0.65471 c 0.64167,-0.16769 1.69167,-0.16769 2.33333,0 0.64167,0.16768 0.11667,0.30488 -1.16666,0.30488 -1.28334,0 -1.80834,-0.1372 -1.16667,-0.30488 z m 162.01268,-0.002 c 0.64865,-0.16903 1.54865,-0.15792 2,0.0247 0.45136,0.18261 -0.0793,0.32091 -1.17935,0.30732 -1.1,-0.0136 -1.46929,-0.16299 -0.82065,-0.33202 z m -169.33333,-0.66667 c 0.64865,-0.16903 1.54865,-0.15791 2,0.0247 0.45136,0.18262 -0.0793,0.32091 -1.17935,0.30733 -1.1,-0.0136 -1.46929,-0.163 -0.82065,-0.33203 z m 176,0 c 0.64864,-0.16903 1.54864,-0.15791 2,0.0247 0.45135,0.18262 -0.0793,0.32091 -1.17935,0.30733 -1.1,-0.0136 -1.4693,-0.163 -0.82065,-0.33203 z m 20.33827,-0.027 c 1.56802,-0.14083 3.96802,-0.13885 5.33333,0.004 1.36531,0.14325 0.0824,0.25847 -2.85096,0.25605 -2.93333,-0.002 -4.0504,-0.11962 -2.48237,-0.26045 z m 40.31571,-0.001 c 1.74166,-0.13734 4.59166,-0.13734 6.33333,0 1.74167,0.13733 0.31667,0.24969 -3.16667,0.24969 -3.48333,0 -4.90833,-0.11236 -3.16666,-0.24969 z m -362.5,-0.61314 c -17.42097,-0.80304 -40.91861,-3.91594 -66.66666,-8.83183 -29.77062,-5.68388 -57.78601,-10.04576 -64.61111,-10.05968 -1.43611,-0.003 -2.43001,-0.18643 -2.20866,-0.40778 0.60179,-0.60178 60.77875,0.95009 81.81977,2.11002 21.11881,1.16421 45.84246,3.06487 65,4.99696 7.33333,0.73959 23.23333,2.54117 35.33333,4.00351 12.1,1.46235 23.74063,2.84564 25.86807,3.07399 2.12743,0.22835 3.62743,0.63446 3.33333,0.90247 -0.97942,0.89253 -24.16599,2.94917 -44.79914,3.97367 -12.55724,0.6235 -23.07379,0.69941 -33.06893,0.23867 z m 117.83334,-0.023 c 0.64166,-0.16769 1.69166,-0.16769 2.33333,0 0.64167,0.16768 0.11667,0.30488 -1.16667,0.30488 -1.28333,0 -1.80833,-0.1372 -1.16666,-0.30488 z m 261.99999,-0.018 c 1.00833,-0.15275 2.65833,-0.15275 3.66667,0 1.00833,0.15275 0.18333,0.27773 -1.83334,0.27773 -2.01666,0 -2.84166,-0.12498 -1.83333,-0.27773 z m -268.33333,-0.63068 c 0.45834,-0.18494 1.20834,-0.18494 1.66667,0 0.45833,0.18494 0.0833,0.33626 -0.83333,0.33626 -0.91667,0 -1.29167,-0.15132 -0.83334,-0.33626 z m 280,-0.029 c 0.825,-0.1589 2.175,-0.1589 3,0 0.825,0.1589 0.15,0.28891 -1.5,0.28891 -1.65,0 -2.325,-0.13001 -1.5,-0.28891 z m -286,-0.6377 c 0.45834,-0.18494 1.20834,-0.18494 1.66667,0 0.45833,0.18494 0.0833,0.33626 -0.83333,0.33626 -0.91667,0 -1.29167,-0.15132 -0.83334,-0.33626 z m 296,-0.029 c 0.825,-0.1589 2.175,-0.1589 3,0 0.825,0.15891 0.15,0.28892 -1.5,0.28892 -1.65,0 -2.325,-0.13001 -1.5,-0.28892 z m -302,-0.63769 c 0.45834,-0.18495 1.20834,-0.18495 1.66667,0 0.45833,0.18494 0.0833,0.33625 -0.83333,0.33625 -0.91667,0 -1.29167,-0.15131 -0.83334,-0.33625 z m -6,-0.66667 c 0.45834,-0.18494 1.20834,-0.18494 1.66667,0 0.45833,0.18494 0.0833,0.33626 -0.83333,0.33626 -0.91667,0 -1.29167,-0.15132 -0.83334,-0.33626 z m -5.33333,-0.66667 c 0.45833,-0.18494 1.20833,-0.18494 1.66667,0 0.45833,0.18494 0.0833,0.33626 -0.83334,0.33626 -0.91666,0 -1.29166,-0.15132 -0.83333,-0.33626 z m -5.33333,-0.66666 c 0.45833,-0.18495 1.20833,-0.18495 1.66666,0 0.45834,0.18494 0.0833,0.33625 -0.83333,0.33625 -0.91667,0 -1.29167,-0.15131 -0.83333,-0.33625 z"
         id="path13" />
      <path
         style="fill:url(#linearGradient18)"
         d="m 738.66665,130.01877 c -36.8159,-0.94245 -58.13401,-2.77082 -120.66666,-10.34911 -31.40483,-3.80593 -35.12223,-4.23328 -49,-5.63306 -18.31492,-1.84734 -43.97303,-3.83418 -64.66667,-5.00749 -9.53333,-0.54053 -34.20833,-1.35076 -54.83333,-1.80051 l -37.5,-0.81773 V 54.872103 3.3333333 H 687.66665 963.33331 V 63.908661 124.48399 l -6.16666,0.43075 c -3.39167,0.23692 -11.11667,0.77463 -17.16667,1.19491 -6.05,0.42028 -27.95,0.81218 -48.66667,0.87089 -22.46215,0.0636 -40.89594,0.41667 -45.66666,0.87455 -14.33961,1.37625 -32.17566,2.09073 -59.66667,2.39013 -14.85,0.16173 -36.15,0.0598 -47.33333,-0.22645 z M 74.666665,125.9841 C 55.185533,125.00563 34.429872,123.37697 19.364032,121.64461 11.497583,120.74007 4.6725834,120 4.1973656,120 3.49635,120 3.3333333,108.99427 3.3333333,61.666667 V 3.3333333 h 174.9999967 175 V 53.210375 103.08742 l -27.30754,0.80684 c -24.65469,0.72847 -48.03059,2.1643 -67.35913,4.13745 -11.50584,1.17457 -35.03681,4.48858 -56.66666,7.98071 -34.95277,5.64311 -46.67891,7.21371 -67,8.97399 -14.8319,1.28479 -44.762935,1.77974 -60.333335,0.99769 z"
         id="path12" />
    </g>
    <path
       style="fill:url(#linearGradient20);fill-opacity:1;stroke-width:0"
       d="m 80.788593,126.60905 -2.873331,-0.12555 v -1.69627 -1.69627 l 14.832598,0.005 c 33.10102,0.0105 52.35512,-1.76218 97.92621,-9.01559 47.32616,-7.53277 62.38259,-9.45244 88.84027,-11.32698 8.49188,-0.60166 15.40897,-1.01684 21.12286,-1.26785 2.47728,-0.10883 6.45461,-0.2989 8.83853,-0.42239 2.38392,-0.12348 6.01829,-0.21416 8.07639,-0.20151 2.0581,0.0126 10.06721,0.0569 17.79802,0.0984 l 14.05602,0.0754 v 1.81924 1.81924 l -5.20306,0.20997 c -15.08884,0.60892 -35.26542,2.06166 -52.41886,3.77424 -15.40973,1.53848 -30.60198,3.48155 -67.87273,8.68084 -26.06721,3.63639 -38.15371,5.21407 -47.52643,6.20375 -10.15753,1.07255 -26.05173,2.27611 -33.08213,2.5051 -3.24609,0.10573 -6.32133,0.25738 -6.83387,0.33702 -1.19875,0.18624 -51.879591,0.39061 -55.680487,0.22453 z"
       id="path18" />
    <rect
       style="fill:url(#linearGradient24);fill-opacity:1;stroke-width:0"
       id="rect22"
       width="93.540237"
       height="3.1773756"
       x="260.15286"
       y="98.154694"
       transform="matrix(0.99997774,0.00667196,0,1,0,0)" />
    <path
       style="fill:#208747;fill-opacity:1;stroke-width:0"
       d="m 330.60653,105.60596 c 0.33222,-0.0231 1.74071,-0.10555 3.12999,-0.18328 2.287,-0.12797 3.64394,-0.19851 6.97385,-0.36254 1.13309,-0.0558 5.79057,-0.25009 7.6328,-0.31837 l 1.04333,-0.0387 0.0157,-0.53589 0.0157,-0.53589 16.39924,0.002 c 9.15997,8.5e-4 16.37668,0.0224 16.34812,0.0488 -0.0281,0.026 -1.22489,0.076 -2.65947,0.11122 -15.54668,0.38134 -35.24436,1.12055 -46.97738,1.76296 -1.08727,0.0595 -2.1004,0.1046 -2.25141,0.10017 -0.151,-0.004 -0.003,-0.0269 0.32948,-0.05 z"
       id="path23" />
    <path
       style="fill:url(#linearGradient65);stroke-width:0"
       d="M 324.68544,51.749273 V -0.02416023 h 16.64842 16.64845 V 51.749273 103.52272 h -16.64845 -16.64842 z"
       id="path60" />
    <path
       style="fill:url(#linearGradient68);stroke-width:0"
       d="m 414.27647,102.74422 v -0.46401 l 6.14969,0.59374 6.14968,0.59374 v 0.46401 0.464 l -6.14968,-0.59374 -6.14969,-0.59374 z"
       id="path60-8" />
    <path
       style="fill:#51d68c;stroke-width:0;fill-opacity:1"
       d="m 416.01356,103.8461 v -0.46401 l 6.01688,0.59374 6.01687,0.59374 v 0.46401 0.464 l -6.01687,-0.59374 -6.01688,-0.59374 z"
       id="path60-8-9" />
    <rect
       style="fill:#16733b;fill-opacity:1;stroke-width:0"
       id="rect70"
       width="2.25"
       height="0.765625"
       x="426.37292"
       y="103.19459"
       ry="0.28125" />
    <rect
       style="fill:#177139;fill-opacity:1;stroke-width:0"
       id="rect71"
       width="2.4748738"
       height="103.06081"
       x="408.0448"
       y="0.022097234"
       ry="0.28125" />
    <path
       style="fill:#51d68c;fill-opacity:1;stroke-width:0"
       d="m 635.23191,119.14987 c -0.19477,-0.0489 -0.24924,-0.10644 -0.16609,-0.17546 0.0909,-0.0754 0.60108,-0.22559 0.60108,-0.17691 0,0.0218 0.0447,0.0374 0.0994,0.0346 0.0547,-0.003 0.2847,0.019 0.51114,0.0483 0.22643,0.0293 0.44022,0.0424 0.47508,0.029 0.0349,-0.0134 0.0634,-0.005 0.0634,0.0185 0,0.0235 0.0386,0.0428 0.0858,0.0428 0.12997,0 0.15023,0.0769 0.037,0.1404 -0.1187,0.0666 -1.47356,0.0973 -1.70681,0.0388 z"
       id="path74" />
    <path
       style="fill:#51d68c;fill-opacity:1;stroke-width:0"
       d="m 640.51721,119.80359 c -0.0911,-0.0254 -0.16573,-0.0719 -0.16573,-0.10326 0,-0.071 0.26791,-0.18103 0.54062,-0.22192 0.21609,-0.0324 1.05869,0.0442 1.30449,0.1186 0.15683,0.0475 0.18827,0.13971 0.0663,0.19445 -0.1208,0.0542 -1.55873,0.0642 -1.74567,0.0121 z"
       id="path75" />
    <path
       style="fill:#51d68c;fill-opacity:1;stroke-width:0"
       d="m 646.2514,120.51224 c -0.43358,-0.0303 -0.55242,-0.0624 -0.55242,-0.14934 0,-0.199 1.09198,-0.31955 1.61419,-0.1782 0.30829,0.0834 0.43591,0.17918 0.32789,0.24594 -0.12744,0.0788 -0.83532,0.12033 -1.38966,0.0816 z"
       id="path76" />
    <path
       style="fill:#51d68c;fill-opacity:1;stroke-width:0"
       d="m 652.13218,121.1779 c -0.20701,-0.023 -0.37783,-0.0661 -0.41708,-0.10541 -0.0592,-0.0592 -0.0425,-0.0775 0.15172,-0.1671 0.19375,-0.0893 0.28509,-0.10041 0.81483,-0.0988 0.51374,0.002 0.62579,0.015 0.80655,0.0969 0.11546,0.0523 0.20992,0.11536 0.20992,0.14009 0,0.11955 -0.95825,0.2017 -1.56594,0.13425 z"
       id="path77" />
    <path
       style="fill:#51d68c;fill-opacity:1;stroke-width:0"
       d="m 658.11754,121.84429 c -0.49934,-0.065 -0.55646,-0.13204 -0.23404,-0.27467 0.38771,-0.1715 1.34174,-0.15071 1.70502,0.0371 0.11367,0.0588 0.12263,0.0761 0.0677,0.13102 -0.11811,0.1181 -0.98745,0.17828 -1.5387,0.1065 z"
       id="path78" />
    <path
       style="fill:#51d68c;fill-opacity:1;stroke-width:0"
       d="m 664.05074,122.50334 c -0.43762,-0.0569 -0.47954,-0.12805 -0.15898,-0.26985 0.2942,-0.13014 0.99774,-0.16188 1.38523,-0.0625 0.30791,0.079 0.44685,0.17124 0.37143,0.24666 -0.10893,0.10893 -1.03634,0.15867 -1.59768,0.0857 z"
       id="path79" />
    <path
       style="fill:#51d68c;fill-opacity:1;stroke-width:0"
       d="m 670.46981,123.12858 c -0.42229,-0.0412 -0.57805,-0.0841 -0.51925,-0.14285 0.0916,-0.0916 0.5474,-0.17464 1.09377,-0.19923 1.0417,-0.0469 2.1295,0.16982 1.5214,0.30308 -0.23113,0.0507 -1.69692,0.0779 -2.09592,0.039 z"
       id="path80" />
    <path
       style="fill:#51d68c;fill-opacity:1;stroke-width:0"
       d="m 670.19442,123.08561 c -0.22882,-0.04 -0.26649,-0.0721 -0.15464,-0.13197 0.39269,-0.21016 2.66184,-0.17713 2.66184,0.0388 0,0.0191 -0.0348,0.0503 -0.0773,0.0693 -0.10172,0.0455 -2.18871,0.066 -2.42986,0.0239 z"
       id="path81" />
    <path
       style="fill:#51d68c;fill-opacity:1;stroke-width:0"
       d="m 678.14244,123.78648 c -0.22037,-0.0458 -0.25956,-0.071 -0.20087,-0.12964 0.0635,-0.0634 0.54803,-0.17931 0.77045,-0.18435 0.36863,-0.008 1.50471,0.10831 1.57823,0.16207 0.0657,0.0481 0.0624,0.0592 -0.0345,0.11335 -0.12915,0.0722 -1.80407,0.10277 -2.1133,0.0386 z"
       id="path82" />
    <path
       style="fill:#51d68c;fill-opacity:1;stroke-width:0"
       d="m 685.71068,124.44974 c -0.17352,-0.0183 -0.35251,-0.054 -0.39775,-0.0793 -0.0753,-0.0422 -0.0715,-0.0501 0.0451,-0.0944 0.25759,-0.0979 0.54471,-0.14204 0.91122,-0.13997 0.41892,0.002 1.76582,0.12131 1.8038,0.15928 0.15785,0.15785 -1.37741,0.25821 -2.36235,0.15442 z"
       id="path83" />
    <path
       style="fill:#51d68c;fill-opacity:1;stroke-width:0"
       d="m 694.00321,125.08722 c -0.0608,-0.0104 -0.19741,-0.0302 -0.30364,-0.0439 -0.26571,-0.0344 -0.18494,-0.0932 0.2401,-0.17482 0.45767,-0.0879 0.83881,-0.0877 2.09647,0.001 1.13203,0.08 1.24396,0.0979 1.03856,0.16686 -0.12979,0.0436 -2.85063,0.0885 -3.07149,0.0507 z"
       id="path84" />
    <path
       style="fill:#51d68c;fill-opacity:1;stroke-width:0"
       d="m 704.48538,125.73337 c -0.41169,-0.0634 -0.37968,-0.11367 0.13089,-0.20547 0.33096,-0.0595 0.51104,-0.0589 1.73921,0.006 0.75351,0.0399 1.39985,0.0829 1.43631,0.0957 0.0492,0.0172 0.0377,0.0356 -0.0442,0.0712 -0.13435,0.0584 -2.91429,0.0861 -3.26222,0.0324 z"
       id="path85" />
    <path
       style="fill:#51d68c;fill-opacity:1;stroke-width:0"
       d="m 716.81187,126.39098 c -0.67132,-0.0348 -0.90909,-0.0904 -0.61544,-0.1439 0.40437,-0.0736 1.05334,-0.12314 1.64953,-0.12589 0.73169,-0.003 3.03955,0.0837 3.30776,0.12474 0.8973,0.13741 -2.37993,0.24689 -4.34185,0.14505 z"
       id="path86" />
    <path
       style="fill:#51d68c;fill-opacity:1;stroke-width:0"
       d="m 740.67225,127.01304 c -3.00606,-0.0375 -3.06548,-0.0393 -2.90587,-0.0873 0.23755,-0.0715 3.0912,-0.14434 4.56316,-0.11648 0.80212,0.0152 2.63176,0.0381 4.06586,0.0509 1.4341,0.0128 3.11458,0.0371 3.73441,0.0539 l 1.12695,0.0306 -0.7513,0.0289 c -1.25005,0.0481 -7.22114,0.0721 -9.83321,0.0395 z"
       id="path87" />
    <path
       style="fill:#51d68c;fill-opacity:1;stroke-width:0"
       d="m 791.69443,127.01537 c -1.81969,-0.0472 -1.78232,-0.0452 -1.67736,-0.0877 0.48167,-0.19515 9.59931,-0.20575 11.02443,-0.0128 0.24122,0.0326 0.23987,0.0331 -0.17678,0.0604 -0.68757,0.045 -7.7847,0.0761 -9.17029,0.0402 z"
       id="path88" />
    <path
       style="fill:#51d68c;fill-opacity:1;stroke-width:0"
       d="m 816.82328,126.39098 c -0.67157,-0.0349 -0.90877,-0.0904 -0.61543,-0.14403 1.0324,-0.18886 3.94795,-0.18858 4.98099,4.8e-4 0.76496,0.14 -2.41781,0.24466 -4.36556,0.14355 z"
       id="path89" />
    <path
       style="fill:#51d68c;fill-opacity:1;stroke-width:0"
       d="m 829.71247,125.788 c 0.17622,-0.008 0.46459,-0.008 0.64081,0 0.17623,0.008 0.032,0.0153 -0.32041,0.0153 -0.35244,0 -0.49663,-0.007 -0.3204,-0.0153 z"
       id="path90" />
    <path
       style="fill:#51d68c;fill-opacity:1;stroke-width:0"
       d="m 828.66285,125.7544 c -0.0365,-0.009 -0.16315,-0.0291 -0.28154,-0.0448 -0.41295,-0.0545 -0.13426,-0.11721 0.79597,-0.17906 1.19068,-0.0792 1.82713,-0.0789 2.24495,0.001 0.81144,0.15525 0.49222,0.21412 -1.23468,0.22768 -0.80212,0.006 -1.48824,0.004 -1.5247,-0.005 z"
       id="path91" />
    <path
       style="fill:#51d68c;fill-opacity:1;stroke-width:0"
       d="m 839.46744,125.1166 c -0.76062,-0.0596 -0.81082,-0.12358 -0.19798,-0.25241 0.81793,-0.17195 2.97711,-0.0612 2.77365,0.14224 -0.10226,0.10226 -1.76732,0.17348 -2.57567,0.11017 z"
       id="path92" />
    <path
       style="fill:#51d68c;fill-opacity:1;stroke-width:0"
       d="m 847.47628,124.45444 c -0.24712,-0.051 -0.28756,-0.11507 -0.11159,-0.17683 0.22839,-0.0802 2.01951,-0.11324 2.15432,-0.0398 0.1376,0.075 0.16067,0.14857 0.0606,0.19329 -0.10611,0.0474 -1.89066,0.0672 -2.10334,0.0233 z"
       id="path93" />
    <path
       style="fill:#51d68c;fill-opacity:1;stroke-width:0"
       d="m 915.28344,123.70082 c -0.40107,-0.0183 -0.80776,-0.036 -0.90378,-0.0394 -0.37434,-0.0131 -0.0638,-0.0894 0.59442,-0.14604 0.94756,-0.0815 5.15929,-0.0811 6.09879,6.5e-4 1.45331,0.12644 0.88042,0.17316 -2.43068,0.19821 -1.44625,0.0109 -2.95769,0.005 -3.35875,-0.0134 z"
       id="path94" />
    <path
       style="fill:#51d68c;fill-opacity:1;stroke-width:0"
       d="m 932.57212,123.07905 c -1.09761,-0.0561 -1.05651,-0.06 1.91368,-0.1806 1.03029,-0.0418 1.33364,-0.0409 1.5468,0.005 0.23914,0.051 0.25432,0.0607 0.15468,0.0981 -0.27179,0.10213 -2.29042,0.14565 -3.61516,0.078 z"
       id="path95" />
    <path
       style="fill:#51d68c;fill-opacity:1;stroke-width:0"
       d="m 943.947,122.41342 c -0.19245,-0.0203 -0.36682,-0.0538 -0.3875,-0.0745 -0.0615,-0.0615 2.54323,-0.22403 2.90292,-0.1811 0.4307,0.0514 0.74383,0.13048 0.69804,0.17627 -0.11332,0.11332 -2.36376,0.16886 -3.21346,0.0793 z"
       id="path96" />
    <path
       style="fill:#51d68c;fill-opacity:1;stroke-width:0"
       d="m 954.01009,121.75197 c -0.43498,-0.0421 -0.6009,-0.10871 -0.36482,-0.14648 0.0844,-0.0135 0.64742,-0.0579 1.25124,-0.0986 0.90208,-0.0608 1.17476,-0.0647 1.52909,-0.0218 0.51334,0.0622 0.77947,0.12933 0.72577,0.18303 -0.11244,0.11244 -2.2546,0.16957 -3.14128,0.0838 z"
       id="path97" />
    <path
       style="fill:#196a35;fill-opacity:1;stroke-width:0"
       d="m 105.11328,122.93173 v -0.0699 l 0.2793,-0.005 c 3.27089,-0.063 8.44327,-0.22015 11.99023,-0.36418 0.20625,-0.008 0.4374,-0.0176 0.51367,-0.0206 l 0.13868,-0.005 v 0.0236 0.0236 l -0.0723,0.005 c -0.30167,0.0211 -3.63944,0.18542 -5.16992,0.25458 -2.10155,0.095 -2.72415,0.11912 -3.62891,0.14078 -0.17617,0.004 -0.39238,0.01 -0.48047,0.012 -0.26717,0.007 -1.14911,0.0265 -1.76562,0.0387 -0.32012,0.006 -0.66817,0.0134 -0.77344,0.0156 -0.10527,0.002 -0.30391,0.006 -0.44141,0.008 -0.1375,0.002 -0.32646,0.006 -0.41992,0.009 l -0.16992,0.005 z"
       id="path98" />
    <path
       style="fill:#196a35;fill-opacity:1;stroke-width:0"
       d="m 100.19648,123.00685 v -0.0587 l 0.0594,-2e-5 c 0.0999,-4e-5 1.24326,-0.018 2.1089,-0.0332 0.81337,-0.0142 2.57253,-0.0476 2.6917,-0.0511 l 0.0566,-0.002 v 0.0673 0.0673 l -0.0345,0.002 c -0.019,0.001 -0.10413,0.003 -0.1892,0.004 -0.0851,7.1e-4 -0.1609,0.002 -0.16849,0.003 -0.008,9.4e-4 -0.16173,0.003 -0.34251,0.005 -0.18078,0.002 -0.33988,0.005 -0.35355,0.006 -0.0137,0.001 -0.18147,0.004 -0.37289,0.005 -0.19142,0.002 -0.36916,0.004 -0.39499,0.006 -0.0258,0.001 -0.20356,0.004 -0.39498,0.005 -0.19142,0.002 -0.38656,0.004 -0.43366,0.006 -0.0471,10e-4 -0.24224,0.004 -0.43365,0.005 -0.19142,0.002 -0.42136,0.004 -0.511,0.006 -0.0896,0.001 -0.3146,0.004 -0.49994,0.006 -0.18534,0.002 -0.43828,0.004 -0.5621,0.006 l -0.22511,0.003 z"
       id="path99" />
    <path
       style="fill:#196a35;fill-opacity:1;stroke-width:0"
       d="m 88.244716,123.07523 c -0.66236,-0.009 -1.393221,-0.0247 -1.624135,-0.0346 -0.254665,-0.0109 1.240646,-0.0194 3.800699,-0.0215 3.95206,-0.003 7.978459,-0.0299 9.231058,-0.061 l 0.546902,-0.0136 v 0.0563 0.0563 l -0.535854,0.007 c -0.594249,0.007 -5.089853,0.0212 -8.203543,0.0254 -1.10596,0.001 -2.552766,-0.005 -3.215127,-0.0139 z"
       id="path100" />
    <path
       style="fill:#196a35;fill-opacity:1;stroke-width:0"
       d="m 86.957031,123.05595 c -0.01934,-5.7e-4 -0.167871,-0.004 -0.330078,-0.007 -0.162207,-0.003 -0.443457,-0.009 -0.625,-0.0136 -0.181543,-0.004 -0.464551,-0.0103 -0.628906,-0.0139 -0.164356,-0.004 -0.302783,-0.007 -0.307617,-0.008 -0.0048,-9.3e-4 -0.0088,-0.004 -0.0088,-0.007 0,-0.005 0.02035,-0.005 0.155273,-0.004 0.269576,0.004 1.181406,0.009 2.120117,0.0137 0.498438,0.002 0.980957,0.005 1.072266,0.005 0.09131,4.4e-4 -0.01064,10e-4 -0.226563,0.002 -0.518617,0.001 -1.354896,0.008 -1.482422,0.0111 -0.174882,0.005 -0.13091,0.007 0.375,0.0208 l 0.109375,0.003 -0.09375,-1.9e-4 c -0.05156,-1e-4 -0.10957,-6.5e-4 -0.128906,-0.001 z"
       id="path101" />
    <path
       style="fill:#196a35;fill-opacity:1;stroke-width:0"
       d="m 118.03906,122.49446 c 0,-0.0282 0.0409,-0.0311 1.03125,-0.0729 0.40821,-0.0172 1.04272,-0.0457 1.41004,-0.0633 0.36732,-0.0176 0.69427,-0.0298 0.72656,-0.0271 0.0538,0.004 -0.97886,0.065 -2.35535,0.13805 -0.30508,0.0162 -0.61269,0.0336 -0.68359,0.0388 -0.10682,0.008 -0.12891,0.005 -0.12891,-0.0134 z"
       id="path102" />
    <path
       style="fill:#196a35;fill-opacity:1;stroke-width:0"
       d="m 505.50401,105.97931 c -3.33606,-0.19671 -6.1765,-0.35227 -8.16626,-0.44723 l -0.20025,-0.01 v -0.0128 c 0,-0.0109 0.003,-0.0127 0.0194,-0.0127 0.0942,0 2.41578,0.11603 3.37523,0.16869 1.32072,0.0725 5.7353,0.33161 5.74155,0.33701 10e-4,8.7e-4 10e-4,0.006 0,0.0117 -0.002,0.01 -0.0351,0.008 -0.7697,-0.0351 z"
       id="path103" />
    <path
       style="fill:#196a35;fill-opacity:1;stroke-width:0"
       d="m 496.26562,105.48234 -0.67187,-0.0387 0.67683,0.0159 c 0.37225,0.009 0.72381,0.027 0.78125,0.0406 l 0.10442,0.0247 -0.10938,-0.002 c -0.0602,-0.001 -0.41171,-0.0193 -0.78125,-0.0406 z"
       id="path104" />
    <path
       style="fill:#158447;fill-opacity:1;stroke-width:0"
       d="m 581.95717,112.47645 c -0.33969,-0.0396 -2.85461,-0.32307 -4.20674,-0.47424 -1.69789,-0.18983 -4.65632,-0.51688 -4.67555,-0.51688 -0.003,0 -0.006,-0.006 -0.006,-0.0138 0,-0.01 0.003,-0.0138 0.01,-0.0138 0.009,0 0.69228,0.0715 1.45391,0.15218 2.37545,0.25173 4.77697,0.51527 7.17247,0.78711 0.26694,0.0303 0.48881,0.0551 0.49304,0.0551 0.005,0 0.008,0.007 0.008,0.0249 v 0.0249 l -0.0207,-6e-4 c -0.0114,-3.4e-4 -0.11393,-0.0115 -0.22787,-0.0247 z"
       id="path105" />
    <path
       style="fill:#158447;fill-opacity:1;stroke-width:0"
       d="m 597.82422,114.32142 c -1.34754,-0.16113 -3.49295,-0.4145 -5.54297,-0.65463 l -0.74219,-0.0869 -10e-4,-0.0188 -10e-4,-0.0188 0.0149,0.002 c 0.008,10e-4 0.10452,0.0128 0.21409,0.0257 0.10958,0.0129 0.24317,0.0287 0.29688,0.0351 0.0537,0.006 0.15654,0.0187 0.22852,0.0273 0.072,0.009 0.22753,0.0271 0.3457,0.0413 0.11816,0.0141 0.2667,0.0318 0.33008,0.0392 0.0634,0.007 0.13632,0.0162 0.16211,0.0194 0.0258,0.003 0.0908,0.011 0.14453,0.0174 0.32322,0.0385 0.54692,0.0652 0.68945,0.0822 0.0892,0.0106 0.27285,0.0326 0.4082,0.0487 0.13536,0.0161 0.26016,0.0311 0.27735,0.0333 0.0172,0.002 0.0972,0.0119 0.17773,0.0214 0.0806,0.01 0.48487,0.058 0.89844,0.10765 0.41357,0.0496 0.77217,0.0926 0.79687,0.0956 0.1038,0.0124 0.26373,0.0316 0.58594,0.0703 0.18799,0.0226 0.3708,0.0446 0.40625,0.0489 0.3348,0.0401 0.48146,0.0582 0.48304,0.0598 0.001,0.001 0.001,0.007 6.4e-4,0.0131 l -0.001,0.0112 z"
       id="path106" />
    <path
       style="fill:#158447;fill-opacity:1;stroke-width:0"
       d="m 590.17969,113.42151 c -1.29686,-0.15133 -3.64901,-0.42318 -4.60938,-0.53273 -0.31152,-0.0355 -0.57212,-0.0656 -0.5791,-0.0667 -0.0127,-0.002 -0.0127,-0.002 -0.0127,-0.0254 0,-0.0172 10e-4,-0.0233 0.005,-0.0233 0.0252,0 4.16571,0.48617 6.07243,0.713 0.20716,0.0246 0.3781,0.0448 0.37989,0.0448 0.002,0 0.003,0.008 0.003,0.0176 0,0.0173 -1.9e-4,0.0176 -0.0127,0.0172 -0.007,-2.4e-4 -0.56817,-0.0652 -1.24707,-0.14447 z"
       id="path107" />
    <path
       style="fill:#158447;fill-opacity:1;stroke-width:0"
       d="m 584.59375,112.777 c -0.20195,-0.0234 -0.63086,-0.0724 -0.95313,-0.10898 -0.32226,-0.0366 -0.59165,-0.0674 -0.59863,-0.0686 l -0.0127,-0.002 v -0.025 -0.025 l 0.0127,0.002 c 0.007,0.001 0.18057,0.021 0.38574,0.0445 0.79205,0.0905 1.53359,0.17612 1.542,0.17798 0.008,0.002 0.009,0.004 0.009,0.0253 0,0.0218 -6.1e-4,0.0233 -0.009,0.023 -0.005,-2.3e-4 -0.17403,-0.0195 -0.37598,-0.0429 z"
       id="path108" />
    <path
       style="fill:#158447;fill-opacity:1;stroke-width:0"
       d="m 601.72656,114.79066 c -1.08466,-0.13121 -2.66257,-0.32108 -3.57519,-0.4302 l -0.15332,-0.0183 v -0.0129 c 0,-0.007 4.4e-4,-0.0129 9.8e-4,-0.0129 0.003,0 2.03815,0.24498 3.44335,0.4145 l 1.62989,0.19663 v 0.0128 c 0,0.008 -0.002,0.0126 -0.005,0.0124 -0.003,-2.3e-4 -0.60605,-0.0731 -1.34082,-0.16203 z"
       id="path109" />
    <path
       style="fill:#158447;fill-opacity:1;stroke-width:0"
       d="m 606.09766,115.31813 c -0.36094,-0.0437 -0.70811,-0.0856 -0.77149,-0.0932 -0.0634,-0.008 -0.29013,-0.035 -0.5039,-0.0608 -0.21377,-0.0258 -0.43965,-0.0531 -0.50196,-0.0606 -0.0623,-0.008 -0.2372,-0.0286 -0.38867,-0.0469 -0.15146,-0.0183 -0.40019,-0.0482 -0.55273,-0.0666 -0.15254,-0.0183 -0.28438,-0.0346 -0.29297,-0.0362 -0.0148,-0.003 -0.0155,-0.003 -0.0137,-0.0148 l 0.002,-0.012 0.39844,0.0481 c 1.24344,0.15007 3.27971,0.39627 3.29394,0.39827 0.0152,0.002 0.0166,0.003 0.0166,0.0136 0,0.0105 -10e-4,0.0113 -0.0146,0.0108 -0.008,-2.5e-4 -0.30996,-0.0362 -0.67089,-0.0799 z"
       id="path110" />
    <path
       style="fill:#158447;fill-opacity:1;stroke-width:0"
       d="m 609.56055,115.73417 c -0.10205,-0.0125 -0.21543,-0.0263 -0.25196,-0.0307 -0.0365,-0.004 -0.31601,-0.0379 -0.62109,-0.0746 -0.30508,-0.0367 -0.81045,-0.0974 -1.12305,-0.13498 -0.31259,-0.0376 -0.61318,-0.0736 -0.66797,-0.08 -0.0548,-0.006 -0.10312,-0.0125 -0.10742,-0.0134 -0.006,-0.001 -0.008,-0.005 -0.008,-0.0138 0,-0.0116 5.4e-4,-0.012 0.0137,-0.01 0.008,0.001 0.64649,0.0786 1.41992,0.17208 0.77344,0.0935 1.43877,0.17388 1.47852,0.1787 l 0.0723,0.009 10e-4,0.0107 c 0.001,0.01 2e-5,0.0107 -0.01,0.0103 -0.006,-2.5e-4 -0.0945,-0.0107 -0.19655,-0.0232 z"
       id="path111" />
    <path
       style="fill:#158447;fill-opacity:1;stroke-width:0"
       d="m 613.76953,116.23804 c -0.0301,-0.004 -0.13642,-0.0169 -0.23633,-0.0288 -0.0999,-0.0119 -0.41631,-0.0498 -0.70312,-0.0841 -0.28682,-0.0343 -1.08838,-0.13015 -1.78125,-0.21292 -0.69287,-0.0828 -1.26504,-0.15138 -1.27149,-0.15246 -0.009,-0.002 -0.0117,-0.004 -0.0117,-0.0117 0,-0.007 0.002,-0.01 0.008,-0.01 0.004,0 0.92207,0.11074 2.0395,0.2461 1.11744,0.13535 2.0337,0.2461 2.03614,0.2461 0.002,0 0.004,0.004 0.004,0.008 0,0.01 -0.008,0.01 -0.084,-2.4e-4 z"
       id="path112" />
    <path
       style="fill:#158447;fill-opacity:1;stroke-width:0"
       d="m 495.5918,105.45087 c -0.16678,-0.008 -0.69528,-0.0324 -1.66993,-0.0758 -0.77152,-0.0343 -2.21759,-0.0959 -3.21289,-0.13681 -0.31474,-0.0129 -0.63466,-0.0261 -0.71093,-0.0293 -0.22794,-0.009 -0.3065,-0.0126 -1.07032,-0.0429 -0.92358,-0.0367 -0.84765,-0.0332 -0.84765,-0.0397 0,-0.007 0.0169,-0.007 0.14566,-0.001 0.052,0.002 0.43998,0.0171 0.86215,0.0333 2.07667,0.0793 4.04941,0.15959 5.90336,0.24018 0.39479,0.0172 0.72306,0.0312 0.72949,0.0312 0.009,0 0.0117,0.002 0.0117,0.008 0,0.007 -0.003,0.008 -0.0361,0.009 l -0.0361,0.001 0.0361,8.1e-4 c 0.0209,4.7e-4 0.0361,0.002 0.0361,0.005 0,0.005 -0.009,0.004 -0.14062,-0.002 z"
       id="path113" />
    <path
       style="fill:#158447;fill-opacity:1;stroke-width:0"
       d="m 487.97266,105.12842 c -0.13503,-0.006 -0.46283,-0.0186 -1.33789,-0.0522 -1.16466,-0.0447 -1.28541,-0.0493 -2.16176,-0.0821 -0.19961,-0.007 -0.36382,-0.0145 -0.36491,-0.0156 -10e-4,-0.001 -10e-4,-0.003 -3.5e-4,-0.003 0.002,-0.001 0.22498,0.007 1.52311,0.0538 1.64442,0.0598 2.41266,0.0883 2.43267,0.0904 0.0113,0.001 0.0196,0.004 0.0185,0.005 -10e-4,0.002 0.002,0.004 0.007,0.005 0.0135,0.003 -0.0339,0.002 -0.11615,-0.002 z"
       id="path114" />
    <path
       style="fill:#158447;fill-opacity:1;stroke-width:0"
       d="m 510.43079,106.27842 c -1.21778,-0.0757 -2.38194,-0.14675 -3.47181,-0.21201 -0.74811,-0.0448 -0.83208,-0.0503 -0.75671,-0.0495 0.0545,5.6e-4 0.0662,-3.1e-4 0.0692,-0.005 0.003,-0.004 0.002,-0.006 -0.005,-0.008 -0.006,-0.002 -0.007,-0.003 -0.002,-0.003 0.0159,-9.1e-4 2.3667,0.14443 3.62597,0.22418 0.18692,0.0118 0.40137,0.0253 0.47657,0.0299 0.0752,0.005 0.13818,0.01 0.13998,0.0113 0.002,0.002 0.003,0.006 0.002,0.0102 -10e-4,0.007 -0.004,0.007 -0.0783,0.002 z"
       id="path115" />
    <path
       style="fill:#158447;fill-opacity:1;stroke-width:0"
       d="m 518.4707,106.80028 c -0.99044,-0.0699 -5.13551,-0.34054 -6.99023,-0.45637 -0.54819,-0.0342 -0.49805,-0.0301 -0.49805,-0.0411 0,-0.008 0.001,-0.009 0.0166,-0.007 0.009,8.7e-4 0.20996,0.0139 0.44629,0.0289 1.6523,0.10508 4.25153,0.27728 6.48438,0.4296 0.3459,0.0236 0.64604,0.044 0.66699,0.0454 0.0281,0.002 0.0381,0.004 0.0381,0.008 0,0.003 -10e-4,0.005 -0.003,0.005 -0.002,-2.9e-4 -0.0741,-0.006 -0.16114,-0.0117 z"
       id="path116" />
  </g>
</svg>
