<?xml version="1.0" encoding="UTF-8" standalone="no"?>
<svg
   version="1.0"
   width="956px"
   height="2125px"
   viewBox="0 0 956 2125"
   preserveAspectRatio="xMidYMid meet"
   id="svg5"
   sodipodi:docname="wiped2.svg"
   inkscape:version="1.3 (0e150ed6c4, 2023-07-21)"
   xmlns:inkscape="http://www.inkscape.org/namespaces/inkscape"
   xmlns:sodipodi="http://sodipodi.sourceforge.net/DTD/sodipodi-0.dtd"
   xmlns="http://www.w3.org/2000/svg"
   xmlns:svg="http://www.w3.org/2000/svg">
  <defs
     id="defs5" />
  <sodipodi:namedview
     id="namedview5"
     pagecolor="#ffffff"
     bordercolor="#999999"
     borderopacity="1"
     inkscape:showpageshadow="2"
     inkscape:pageopacity="0"
     inkscape:pagecheckerboard="0"
     inkscape:deskcolor="#d1d1d1"
     inkscape:zoom="0.76329412"
     inkscape:cx="120.53021"
     inkscape:cy="608.54655"
     inkscape:window-width="1920"
     inkscape:window-height="1046"
     inkscape:window-x="-11"
     inkscape:window-y="-11"
     inkscape:window-maximized="1"
     inkscape:current-layer="svg5" />
  <g
     fill="#fefefe"
     id="g1">
    <path
       d="M 0 1062.5 l 0 -1062.5 478 0 478 0 0 1062.5 0 1062.5 -478 0 -478 0 0 -1062.5 z "
       id="path1" />
  </g>
  <g
     fill="#51d68c"
     id="g2">
    <path
       d="M 0 1730.5 l 0 -394.5 2.5 -1 c 8.9 -3.4 58.8 -11.9 82 -14 15.2 -1.4 48.9 -1.4 63.2 0 23.3 2.2 52.6 8.9 88.8 20.5 70.4 22.5 104.7 29.8 158.7 33.5 22.9 1.7 79.4 0.8 94.8 -1.4 33.8 -4.9 57.3 -11.6 102.4 -29.5 32 -12.8 38.5 -15.1 54 -19.1 14.9 -3.8 26.2 -5.1 45.8 -5.1 24 0 41.8 2.7 72.8 10.8 14.2 3.8 19 4.6 25.5 4.5 11.8 -0.1 25.1 -3.4 36.9 -9 12.3 -5.9 18.4 -9.8 31.2 -19.8 18.5 -14.5 22.9 -17.6 30.9 -21.4 10.8 -5.1 16.9 -6.4 27.5 -5.7 9.6 0.6 22.6 4.4 33 9.7 l 6 3 0 416.5 0 416.5 -478 0 -478 0 0 -394.5 z "
       id="path2" />
  </g>
  <g
     fill="#bcff9d"
     id="g3"
     style="fill:#51d68c;fill-opacity:1">
    <path
       d="M 27.3 388.5 c -11.2 -3.7 -19 -7.4 -24 -11.3 l -3.3 -2.4 0 -187.4 0 -187.4 478 0 478 0 0 167.8 0 167.7 -12.2 2.8 c -48.2 11.1 -95.9 15.1 -133.6 11.2 -28.7 -3 -37.8 -5.3 -102.2 -25.5 -46.5 -14.7 -66.9 -19.7 -98.5 -24.4 -26.4 -3.9 -53.7 -5.8 -85.5 -5.8 -32.2 -0.1 -51.3 1.5 -75 6.2 -26.4 5.2 -40.8 10 -82.5 27 -45.2 18.5 -61.7 22.8 -91.5 23.7 -26.3 0.8 -52.3 -3 -84.5 -12.4 -11.1 -3.3 -12.7 -3.5 -22 -3 -5.5 0.3 -13.6 1.4 -18 2.6 -11.5 3 -28.2 11.7 -40.8 21.3 -27.3 20.9 -31.4 23.7 -37.6 26.8 -9.7 4.9 -14.4 6 -25 6 -8.3 0 -11 -0.5 -19.8 -3.5 z "
       id="path3"
       style="fill:#51d68c;fill-opacity:1" />
  </g>
  <g
     fill="#1d3712"
     id="g4">
    <path
       d="M 0 1947.4 c 0 -97.7 0.3 -177.4 0.8 -177.2 0.4 0.2 3.9 1.9 7.7 3.9 12.1 6.3 23.9 10 34.1 10.6 18.5 1.2 29.7 -4 59.1 -27.4 19.3 -15.3 34.5 -23.2 51.8 -26.8 14.2 -3 21.5 -2.4 43.8 3.4 32.6 8.5 40.9 9.6 71.2 9.5 23.2 0 27.1 -0.2 36.5 -2.2 13.8 -3 42.6 -12.9 67.4 -23.1 35.4 -14.6 60.7 -22 91.1 -26.8 17.6 -2.7 18.9 -2.8 60.5 -2.8 34.3 0 45.6 0.3 58.5 1.8 50.8 5.7 76.1 11.5 144 33.2 25.3 8.1 47.2 13.6 67.1 17.1 12.6 2.2 19 2.7 41 3.1 36.2 0.8 60.1 -1.6 100 -9.8 10.6 -2.1 19.8 -3.9 20.4 -3.9 0.7 0 1 61.7 1 197.5 l 0 197.5 -478 0 -478 0 0 -177.6 z "
       id="path4" />
  </g>
  <g
     fill="#297d4e"
     id="g5">
    <path
       d="M 390.5 1909.9 c -48.8 -3.9 -84.1 -10 -132.5 -23.1 -82.4 -22.2 -94.6 -24.3 -142 -24.2 -36.8 0.1 -64.1 2.9 -104.3 10.8 l -11.7 2.3 0 -52.9 c 0 -29.2 0.3 -52.8 0.8 -52.6 0.4 0.2 3.9 1.9 7.7 3.9 12.1 6.3 23.9 10 34.1 10.6 18.5 1.2 29.7 -4 59.1 -27.4 19.3 -15.3 34.5 -23.2 51.8 -26.8 14.2 -3 21.5 -2.4 43.8 3.4 32.6 8.5 40.9 9.6 71.2 9.5 23.2 0 27.1 -0.2 36.5 -2.2 13.8 -3 42.6 -12.9 67.4 -23.1 35.4 -14.6 60.7 -22 91.1 -26.8 17.6 -2.7 18.9 -2.8 60.5 -2.8 34.3 0 45.6 0.3 58.5 1.8 50.8 5.7 76.1 11.5 144 33.2 25.3 8.1 47.2 13.6 67.1 17.1 12.6 2.2 19 2.7 41 3.1 36.2 0.8 60.1 -1.6 100 -9.8 10.6 -2.1 19.8 -3.9 20.4 -3.9 0.7 0 1 17.4 1 54 l 0 54.1 -2.9 -1.5 c -11 -5.7 -26.7 -9.6 -38.8 -9.6 -16 0 -24.9 3.6 -50.7 20.7 -29.4 19.6 -45.6 26.1 -69.3 27.9 -8.2 0.6 -10.3 0.4 -23.9 -2.9 -54.7 -13.3 -98.3 -14 -138.9 -2.3 -14.7 4.2 -18.6 5.5 -44.5 14.6 -42.9 15 -66.8 20.5 -106.2 24.5 -16.3 1.7 -70.9 1.9 -90.3 0.4 z "
       id="path5" />
  </g>
</svg>
